<?xml version="1.0" standalone="no"?><!DOCTYPE svg PUBLIC "-//W3C//DTD SVG 1.1//EN" "http://www.w3.org/Graphics/SVG/1.1/DTD/svg11.dtd" ><svg xmlns="http://www.w3.org/2000/svg"><metadata></metadata><defs><font id="1.000;WYUE;MFJianHei_Noncommercial-Regular" horiz-adv-x="1050"><font-face font-family="MF JianHei (Noncommercial) Regular" font-weight="400" font-stretch="normal" units-per-em="1000" panose-1="0 0 0 0 0 0 0 0 0 0" ascent="880" descent="-120" x-height="0" bbox="10 -185 1009 784" underline-thickness="50" underline-position="-75" unicode-range="U+0021-ff1b" /><missing-glyph horiz-adv-x="1000" d="M36 780 l930 0 l0 -960 l-930 0 l0 960 ZM894 730 l-787 0 l399 -389 l388 389 ZM918 -89 l0 778 l-388 -389 l388 -389 ZM894 -130 l-388 389 l-399 -389 l787 0 ZM83 -89 l399 389 l-399 389 l0 -778 Z" /><glyph glyph-name="parenleft" unicode="(" d="M266 756 q-35 -103 -53 -220.5 q-18 -117.5 -18 -237.5 q0 -120 18 -237 q18 -117 53 -220 l-135 0 q-35 103 -53 220 q-18 117 -18 237 q0 120 18 237.5 q18 117.5 53 220.5 l135 0 Z" /><glyph glyph-name="parenright" unicode=")" d="M174 756 q35 -103 52.5 -220.5 q17.5 -117.5 17.5 -237.5 q0 -120 -17.5 -237 q-17.5 -117 -52.5 -220 l-134 0 q35 103 52.5 220 q17.5 117 17.5 237 q0 120 -17.5 237.5 q-17.5 117.5 -52.5 220.5 l134 0 Z" /><glyph glyph-name="comma" unicode="," d="M195 -143 l-155 0 l30 170 l155 0 l-30 -170 Z" /><glyph glyph-name="period" unicode="." d="M197 -143 l-155 0 l0 170 l155 0 l0 -170 Z" /><glyph glyph-name="colon" unicode=":" d="M196 -67 l-154 0 l0 169 l154 0 l0 -169 ZM196 500 l-154 0 l0 169 l154 0 l0 -169 Z" /><glyph glyph-name="semicolon" unicode=";" d="M194 -67 l-154 0 l30 169 l154 0 l-30 -169 ZM219 500 l-154 0 l0 169 l154 0 l0 -169 Z" /><glyph glyph-name="cid98" unicode="&#x3002;" d="M233 28 l0 -144 q0 -10 -7 -17 q-10 -10 -25 -10 l-171 0 l0 145 q0 8 7 17 q9 9 26 9 l170 0 ZM105 -89 l53 0 l0 64 l-53 0 l0 -64 Z" /><glyph glyph-name="cid262" unicode="&#xff01;" d="M195 -143 l-165 0 l0 170 l165 0 l0 -170 ZM195 114 l-165 0 l0 625 l165 0 l0 -625 Z" /><glyph glyph-name="cid269" unicode="&#xff08;" d="M970 756 q-35 -103 -53 -220.5 q-18 -117.5 -18 -237.5 q0 -120 18 -237 q18 -117 53 -220 l-135 0 q-35 103 -53 220 q-18 117 -18 237 q0 120 18 237.5 q18 117.5 53 220.5 l135 0 Z" /><glyph glyph-name="cid270" unicode="&#xff09;" d="M164 756 q35 -103 52.5 -220.5 q17.5 -117.5 17.5 -237.5 q0 -120 -17.5 -237 q-17.5 -117 -52.5 -220 l-134 0 q35 103 52.5 220 q17.5 117 17.5 237 q0 120 -17.5 237.5 q-17.5 117.5 -52.5 220.5 l134 0 Z" /><glyph glyph-name="cid273" unicode="&#xff0c;" d="M185 -143 l-155 0 l30 170 l155 0 l-30 -170 Z" /><glyph glyph-name="cid287" unicode="&#xff1a;" d="M176 -67 l-155 0 l0 169 l155 0 l0 -169 ZM176 500 l-155 0 l0 169 l155 0 l0 -169 Z" /><glyph glyph-name="cid288" unicode="&#xff1b;" d="M165 -67 l-155 0 l30 169 l155 0 l-30 -169 ZM190 500 l-155 0 l0 169 l155 0 l0 -169 Z" /><glyph glyph-name="cid999" unicode="&#x8d25;" d="M1006 -183 l-160 0 l-70 128 l-28 -85 q-6 -22 -27 -32 q-21 -10 -43 -10 l-149 0 l-13 124 l96 0 l63 187 l-101 185 l-70 0 l86 466 l153 0 l-19 -102 l282 0 l0 -124 l-26 0 l-144 -429 l170 -308 ZM43 112 l0 579 q0 25 20.5 44 q20.5 19 49.5 19 l381 0 l0 -642 l-120 0 l0 526 l-208 0 l0 -526 l-123 0 ZM347 -179 l-64 172 l-55 -135 q-8 -19 -26.5 -27.5 q-18.5 -8.5 -38.5 -8.5 l-106 0 l-11 119 l59 0 l88 211 l0 424 l150 -8 l0 -430 l-24 -59 l90 0 l94 -258 l-156 0 ZM706 363 l29 -54 l83 245 l-116 0 l-35 -191 l39 0 Z" /><glyph glyph-name="cid1036" unicode="&#x4fdd;" d="M863 -180 l-64 367 l-65 0 l0 -367 l-151 0 l0 367 l-63 0 l-66 -367 l-140 0 l66 367 l-65 0 l0 124 l268 0 l0 71 l-241 0 l0 327 q2 32 27 52 q25 20 59 20 l545 0 l0 -327 q-2 -32 -27.5 -52 q-25.5 -20 -58.5 -20 l-153 0 l0 -71 l267 0 l0 -124 l-62 0 l63 -367 l-139 0 ZM113 -182 l0 573 l-66 0 l121 390 l154 0 l-87 -281 l33 0 l0 -682 l-155 0 ZM497 657 l0 -150 l321 0 l0 150 l-321 0 Z" /><glyph glyph-name="cid1040" unicode="&#x62b1;" d="M1009 -3 l0 -100 q0 -35 -22 -56 q-22 -21 -57 -21 l-416 0 q-14 0 -28 4.5 q-14 4.5 -25 13.5 q-11 9 -18 21.5 q-7 12.5 -7 28.5 l0 537 l-67 0 l73 356 l144 0 l-9 -43 l425 0 l0 -645 q0 -29 -22.5 -46.5 q-22.5 -17.5 -50.5 -17.5 l-183 0 l-11 118 l123 0 l0 475 l-303 0 l-1 5 l-16 -78 l285 0 l0 -315 q0 -32 -24.5 -50 q-24.5 -18 -54.5 -18 l-163 0 l0 -230 l283 0 l0 61 l145 0 ZM41 267 l93 7 l0 244 l-89 0 l0 124 l89 0 l0 140 l154 0 l0 -140 l87 0 l0 -124 l-87 0 l0 -232 l86 7 l13 -122 l-99 -8 l0 -284 q0 -15 -7 -26.5 q-7 -11.5 -18 -19.5 q-11 -8 -25 -12 q-14 -4 -27 -4 l-144 0 l0 124 l67 0 l0 210 l-79 -6 l-14 122 ZM581 434 l0 -151 l97 0 l0 151 l-97 0 Z" /><glyph glyph-name="cid1225" unicode="&#x957f;" d="M973 -180 l-192 0 q-20 0 -40 10 q-20 10 -28 31 l-166 450 l-183 0 l0 -368 l147 0 l0 -124 l-225 0 q-13 0 -26.5 4 q-13.5 4 -25 12 q-11.5 8 -18.5 19.5 q-7 11.5 -7 26.5 l0 430 l-164 0 l0 124 l164 0 l0 347 l155 0 l0 -347 l640 0 l0 -124 l-294 0 l135 -366 l151 0 l-23 -125 ZM548 479 l202 290 l183 0 l-200 -290 l-185 0 Z" /><glyph glyph-name="cid1262" unicode="&#x6210;" d="M741 780 l21 -132 l221 0 l0 -124 l-202 0 l48 -297 l132 31 l30 -120 l-143 -33 l26 -161 l115 0 l-12 -124 l-173 0 q-23 0 -44.5 11 q-21.5 11 -26.5 36 l-33 203 l-118 -27 l-30 121 l128 29 l-53 331 l-412 0 l0 -87 l313 0 l0 -506 q0 -15 -7 -26 q-7 -11 -18.5 -19 q-11.5 -8 -25 -12 q-13.5 -4 -26.5 -4 l-187 0 l-14 123 l124 0 l0 320 l-159 0 l0 -492 l-156 0 l0 765 q0 15 7.5 26.5 q7.5 11.5 18.5 19.5 q11 8 25 12 q14 4 27 4 l470 0 l-19 116 l153 16 ZM934 777 l19 -102 l-145 0 l-18 102 l144 0 Z" /><glyph glyph-name="cid1269" unicode="&#x627f;" d="M297 122 l160 0 l0 68 l-132 0 l0 124 l132 0 l0 61 l-111 0 l0 123 l111 0 l0 48 q0 14 7 25 q7 11 16 19 l102 64 l-412 0 l0 124 l628 0 q27 0 44 -11 q17 -11 23 -27.5 q6 -16.5 0 -35.5 q-6 -19 -27 -35 l-227 -161 l0 -10 l109 0 l0 -123 l-109 0 l0 -61 l129 0 l0 -124 l-129 0 l0 -68 l157 0 l0 -123 l-157 0 l0 -120 q0 -15 -7 -26.5 q-7 -11.5 -18 -19.5 q-11 -8 -25 -12 q-14 -4 -27 -4 l-200 0 l0 124 l123 0 l0 58 l-160 0 l0 123 ZM45 530 l207 0 q33 0 52 -20.5 q19 -20.5 15 -53.5 l-72 -572 q-4 -31 -31 -46 q-27 -15 -55 -15 l-105 0 l-11 123 l54 0 l59 460 l-103 0 l-10 124 ZM846 -176 l-93 535 q-4 25 6 47 l81 184 l159 0 l-87 -199 q-4 -9 -2 -19 l95 -548 l-159 0 Z" /><glyph glyph-name="cid1289" unicode="&#x5145;" d="M59 698 l394 0 l0 84 l146 0 l0 -84 l391 0 l0 -124 l-614 0 l-90 -219 l476 0 l-43 148 l150 29 l65 -219 q6 -19 1.5 -34 q-4.5 -15 -15.5 -25.5 q-11 -10.5 -26.5 -16.5 q-15.5 -6 -32.5 -6 l-94 0 l0 -286 l82 0 l0 107 l135 0 l0 -169 q0 -15 -9 -26.5 q-9 -11.5 -22 -19.5 q-13 -8 -28.5 -12 q-15.5 -4 -28.5 -4 l-207 0 q-13 0 -27 4 q-14 4 -25 12 q-11 8 -18.5 19.5 q-7.5 11.5 -7.5 26.5 l0 348 l-199 0 l-67 -364 q-6 -26 -28.5 -36 q-22.5 -10 -45.5 -10 l-189 0 l-12 125 l128 0 l56 285 l-77 0 q-16 0 -32.5 6 q-16.5 6 -28 17.5 q-11.5 11.5 -16 26.5 q-4.5 15 3.5 33 l109 260 l-154 0 l0 124 Z" /><glyph glyph-name="cid1307" unicode="&#x51fa;" d="M981 256 l0 -363 q0 -17 -8 -30.5 q-8 -13.5 -20 -22.5 q-12 -9 -27.5 -14 q-15.5 -5 -30.5 -5 l-740 0 q-15 0 -30.5 5 q-15.5 5 -28 14 q-12.5 9 -20.5 22.5 q-8 13.5 -8 30.5 l0 361 l155 0 l0 -309 l224 0 l0 365 l-267 0 q-15 0 -30.5 5 q-15.5 5 -28 14 q-12.5 9 -20.5 22 q-8 13 -8 30 l0 348 l155 0 l0 -295 l199 0 l0 343 l155 0 l0 -343 l199 0 l0 295 l156 0 l0 -348 q0 -17 -8 -30 q-8 -13 -20.5 -22 q-12.5 -9 -28.5 -14 q-16 -5 -31 -5 l-267 0 l0 -365 l225 0 l0 311 l154 0 Z" /><glyph glyph-name="cid1445" unicode="&#x7684;" d="M350 779 l-23 -90 l173 0 l0 -801 q0 -17 -7.5 -29.5 q-7.5 -12.5 -19.5 -20.5 q-12 -8 -26.5 -12.5 q-14.5 -4.5 -29.5 -4.5 l-373 0 l0 801 q0 16 7.5 28.5 q7.5 12.5 19.5 21 q12 8.5 26.5 13 q14.5 4.5 28.5 4.5 l46 0 l24 90 l154 0 ZM1005 703 l0 -817 q0 -17 -7 -29.5 q-7 -12.5 -18.5 -20.5 q-11.5 -8 -26 -12.5 q-14.5 -4.5 -28.5 -4.5 l-210 0 l-23 124 l159 0 l0 635 l-159 0 l-22 -118 l-155 0 l59 320 l156 0 l-15 -77 l290 0 ZM708 409 l78 -372 l-154 0 l-78 372 l154 0 ZM346 565 l-147 0 l0 -249 l147 0 l0 249 ZM346 -56 l0 248 l-147 0 l0 -248 l147 0 Z" /><glyph glyph-name="cid1518" unicode="&#x52a8;" d="M531 655 l99 0 l14 128 l155 0 l-13 -128 l220 0 l0 -763 q0 -35 -23.5 -53.5 q-23.5 -18.5 -53.5 -18.5 l-150 0 l0 124 l72 0 l0 587 l-78 0 l-74 -711 l-156 0 l74 711 l-86 0 l0 124 ZM43 452 l470 0 l0 -124 l-252 0 l-52 -382 l146 0 l-24 270 l151 12 l35 -344 q0 -15 -6.5 -26.5 q-6.5 -11.5 -17 -19.5 q-10.5 -8 -23.5 -12 q-13 -4 -26 -4 l-337 1 q-24 0 -44 17.5 q-20 17.5 -20 44.5 l63 443 l-63 0 l0 124 ZM65 742 l426 0 l0 -124 l-426 0 l0 124 Z" /><glyph glyph-name="cid1646" unicode="&#x8d39;" d="M584 243 l0 132 l-136 0 l-62 -89 q-13 -19 -32 -31.5 q-19 -12.5 -44 -12.5 l-202 0 l0 114 l146 0 l16 19 l-113 0 q-27 0 -48 14.5 q-21 14.5 -21 49.5 l0 118 q0 35 20 45 q20 10 49 10 l164 0 l0 36 l-249 0 l0 101 l249 0 l0 35 l154 0 l0 -35 l109 0 l0 35 l155 0 l0 -35 l237 0 l0 -162 q0 -38 -21.5 -57 q-21.5 -19 -50.5 -19 l-165 0 l0 -35 l252 0 l0 -161 q0 -38 -16 -52.5 q-16 -14.5 -50 -14.5 l-156 0 l0 101 l66 0 l0 26 l-96 0 l0 -132 l-155 0 ZM102 -23 l0 178 q0 32 21.5 48.5 q21.5 16.5 56.5 16.5 l752 0 l0 -243 l-155 0 l0 134 l-520 0 l0 -134 l-155 0 ZM965 -182 l-222 0 q-10 0 -20.5 2.5 q-10.5 2.5 -19.5 7.5 l-185 104 l-186 -104 q-17 -10 -39 -10 l-223 0 l-12 121 l201 0 l185 103 l0 51 l148 -9 l0 -42 l184 -103 l201 0 l-12 -121 ZM475 612 l109 0 l0 36 l-109 0 l0 -36 ZM475 476 l109 0 l0 35 l-109 0 l0 -35 ZM234 476 l87 0 l0 35 l-87 0 l0 -35 ZM821 612 l0 36 l-82 0 l0 -36 l82 0 Z" /><glyph glyph-name="cid1691" unicode="&#x670d;" d="M489 -181 l0 886 q0 17 8 30.5 q8 13.5 21 22.5 q13 9 28.5 14 q15.5 5 30.5 5 l419 0 l0 -312 q0 -17 -8 -30.5 q-8 -13.5 -20.5 -22.5 q-12.5 -9 -28.5 -14 q-16 -5 -31 -5 l-204 0 l0 123 l138 0 l0 137 l-198 0 l0 -298 l269 0 q13 0 26.5 -4.5 q13.5 -4.5 24.5 -12.5 q11 -8 18.5 -19.5 q7.5 -11.5 7.5 -26.5 l0 -147 q0 -6 -2.5 -14.5 q-2.5 -8.5 -5.5 -13.5 l-82 -135 l107 -161 l-144 0 l-32 47 l-9 -16 q-11 -17 -28.5 -24.5 q-17.5 -7.5 -36.5 -7.5 l-83 0 l-15 114 l51 0 l37 62 l-103 154 l0 -331 l-155 0 ZM236 -57 l62 0 l0 142 l-101 0 l0 -266 l-154 0 l0 878 q0 16 7.5 29.5 q7.5 13.5 20 22.5 q12.5 9 27.5 14 q15 5 30 5 l325 0 l0 -877 q0 -17 -7.5 -30.5 q-7.5 -13.5 -20 -22.5 q-12.5 -9 -28 -14 q-15.5 -5 -30.5 -5 l-131 0 l0 124 ZM197 209 l101 0 l0 162 l-101 0 l0 -162 ZM298 644 l-101 0 l0 -150 l101 0 l0 150 ZM758 197 l58 -88 l35 59 l0 74 l-207 0 l0 -45 l114 0 Z" /><glyph glyph-name="cid1791" unicode="&#x529f;" d="M448 687 l128 0 l13 93 l154 0 l-13 -93 l274 0 l0 -793 q0 -17 -8 -30.5 q-8 -13.5 -20.5 -22.5 q-12.5 -9 -28 -14 q-15.5 -5 -30.5 -5 l-198 0 l0 124 l130 0 l0 617 l-136 0 l-100 -743 l-155 0 l101 743 l-111 0 l0 124 ZM46 7 l107 0 l0 583 l-98 0 l0 124 l354 0 l0 -124 l-100 0 l0 -583 l109 0 l0 -123 l-372 0 l0 123 Z" /><glyph glyph-name="cid1792" unicode="&#x606d;" d="M47 436 l185 0 l0 133 l-161 0 l0 123 l161 0 l0 89 l155 0 l0 -89 l273 0 l0 89 l155 0 l0 -89 l161 0 l0 -123 l-161 0 l0 -133 l185 0 l0 -124 l-98 0 l85 -157 l-160 0 l-84 157 l-436 0 l-86 -157 l-159 0 l86 157 l-101 0 l0 124 ZM300 -60 l80 0 l0 338 l156 0 l0 -400 l-1 0 q0 -15 -7 -26.5 q-7 -11.5 -18.5 -19.5 q-11.5 -8 -25 -12 q-13.5 -4 -26.5 -4 l-158 0 l0 124 ZM312 131 l-88 -313 l-154 0 l88 313 l154 0 ZM742 131 l51 -313 l-152 0 l-51 313 l152 0 ZM942 131 l53 -313 l-151 0 l-53 313 l151 0 ZM387 436 l273 0 l0 133 l-273 0 l0 -133 Z" /><glyph glyph-name="cid1998" unicode="&#x8fd8;" d="M541 -17 l0 409 l-105 -263 q-9 -23 -29.5 -30.5 q-20.5 -7.5 -43.5 -7.5 l-108 0 l-11 124 l61 0 l169 424 l-212 0 l0 124 l711 0 l0 -124 l-334 0 l-42 -107 l99 0 l0 -549 l-155 0 ZM999 -173 l-864 0 q-13 0 -27 4 q-14 4 -25 12 q-11 8 -18.5 19.5 q-7.5 11.5 -7.5 26.5 l0 653 l156 0 l0 -591 l786 0 l0 -124 ZM994 90 l-159 0 l-109 445 l159 0 l109 -445 ZM60 629 l-9 150 l155 0 l10 -150 l-156 0 Z" /><glyph glyph-name="cid2162" unicode="&#x5065;" d="M995 115 l0 -106 l-156 0 l0 -52 l-139 0 l0 52 l-129 0 l0 106 l129 0 l0 44 l-114 0 l0 107 l114 0 l0 49 l-115 0 l0 100 l96 0 l0 59 l-123 0 l0 110 l123 0 l0 55 l-96 0 l0 101 l96 0 l0 42 l139 0 l0 -42 l168 0 l0 -156 l19 0 l0 -110 l-19 0 l0 -99 q0 -25 -17.5 -42.5 q-17.5 -17.5 -41.5 -17.5 l-90 0 l0 -49 l143 0 l0 -107 l-143 0 l0 -44 l156 0 ZM1005 -176 l-429 0 q-19 0 -33 8.5 q-14 8.5 -26 22.5 l-62 73 l-29 -112 l-130 30 l54 207 l-74 89 l84 90 l28 -34 l25 93 l-57 0 q-17 0 -31.5 6.5 q-14.5 6.5 -23.5 17.5 q-9 11 -11.5 25.5 q-2.5 14.5 3.5 29.5 l101 259 l-89 0 l0 123 l189 0 q14 0 27.5 -5.5 q13.5 -5.5 23.5 -15.5 q10 -10 13 -24 q3 -14 -4 -32 l-109 -262 l72 0 q26 0 42.5 -18.5 q16.5 -18.5 7.5 -47.5 l-73 -273 l117 -137 l394 0 l0 -113 ZM112 -182 l0 573 l-69 0 l103 391 l151 0 l-75 -282 l42 0 l0 -682 l-152 0 ZM870 415 l0 59 l-50 0 l0 -59 l50 0 ZM870 639 l-50 0 l0 -55 l50 0 l0 55 Z" /><glyph glyph-name="cid2212" unicode="&#x63a5;" d="M370 242 l58 0 l0 52 l155 0 l0 -52 l425 0 l0 -124 l-62 0 l0 -84 q0 -22 -14.5 -34 q-14.5 -12 -33.5 -19 l-30 -10 l140 -50 l-69 -104 l-252 89 l-249 -89 l-68 104 l138 49 l-32 11 q-18 7 -33 19 q-15 12 -15 34 l0 84 l-58 0 l0 124 ZM42 260 l79 7 l0 253 l-76 0 l0 124 l76 0 l0 136 l155 0 l0 -136 l75 0 l0 -124 l-75 0 l0 -238 l67 7 l10 -122 l-77 -8 l0 -276 q0 -15 -7 -26.5 q-7 -11.5 -18.5 -19.5 q-11.5 -8 -25.5 -12 q-14 -4 -27 -4 l-143 0 l0 124 l66 0 l0 199 l-69 -6 l-10 122 ZM370 444 l100 0 l-42 135 l145 0 l42 -135 l146 0 l43 135 l145 0 l-43 -135 l102 0 l0 -125 l-638 0 l0 125 ZM384 725 l227 0 l0 56 l156 0 l0 -56 l226 0 l0 -123 l-609 0 l0 123 ZM792 70 l0 48 l-209 0 l0 -47 l106 -38 l103 37 Z" /><glyph glyph-name="cid2233" unicode="&#x501f;" d="M377 220 q0 16 7.5 28 q7.5 12 19.5 20.5 q12 8.5 26.5 13 q14.5 4.5 28.5 4.5 l514 0 l0 -403 q0 -16 -7.5 -28.5 q-7.5 -12.5 -19.5 -20.5 q-12 -8 -26.5 -12.5 q-14.5 -4.5 -28.5 -4.5 l-514 0 l0 403 ZM341 449 l101 0 l0 120 l-79 0 l0 124 l79 0 l0 88 l154 0 l0 -88 l156 0 l0 88 l154 0 l0 -88 l79 0 l0 -124 l-79 0 l0 -120 l102 0 l0 -124 l-667 0 l0 124 ZM142 -182 l0 573 l-100 0 l172 392 l154 0 l-124 -283 l53 0 l0 -682 l-155 0 ZM596 449 l156 0 l0 120 l-156 0 l0 -120 ZM531 162 l0 -50 l288 0 l0 50 l-288 0 ZM819 -60 l0 49 l-288 0 l0 -49 l288 0 Z" /><glyph glyph-name="cid2249" unicode="&#x8fdb;" d="M704 -15 l0 220 l-179 0 l-8 -168 q-2 -27 -24.5 -40.5 q-22.5 -13.5 -46.5 -13.5 l-165 0 l-13 124 l99 0 l5 98 l-126 0 l0 123 l132 0 l9 197 l-122 0 l0 124 l128 0 l7 132 l153 -14 l-6 -118 l157 0 l0 124 l155 0 l0 -124 l114 0 l0 -124 l-114 0 l0 -197 l134 0 l0 -123 l-134 0 l0 -220 l-155 0 ZM1003 -173 l-872 0 q-13 0 -26.5 4 q-13.5 4 -25 12 q-11.5 8 -18.5 19.5 q-7 11.5 -7 26.5 l0 653 l155 0 l0 -591 l794 0 l0 -124 ZM531 328 l173 0 l0 197 l-163 0 l-10 -197 ZM56 629 l-9 150 l155 0 l10 -150 l-156 0 Z" /><glyph glyph-name="cid2427" unicode="&#x6b3e;" d="M849 527 l0 -257 l-11 -40 l49 0 l122 -410 l-142 0 l-74 247 l-56 -206 q-5 -22 -23 -32 q-18 -10 -39 -10 l-95 0 l-12 124 l45 0 l99 358 l0 236 l137 -10 ZM67 543 l162 0 l0 65 l-171 0 l0 122 l171 0 l0 53 l145 0 l0 -53 l172 0 l0 -122 l-172 0 l0 -65 l162 0 l0 -121 l-469 0 l0 121 ZM867 337 l7 263 l-168 0 l-22 -263 l-133 0 l40 441 l131 0 l-5 -54 l230 0 q26 0 43.5 -15.5 q17.5 -15.5 16.5 -43.5 l-8 -328 l-132 0 ZM195 -62 l43 0 l0 155 l-194 0 l0 122 l515 0 l0 -122 l-177 0 l0 -222 q0 -23 -19 -38.5 q-19 -15.5 -48 -15.5 l-102 0 l-18 121 ZM67 383 l469 0 l0 -121 l-469 0 l0 121 ZM41 -183 l31 245 l120 0 l-30 -245 l-121 0 ZM442 -183 l-31 245 l120 0 l31 -245 l-120 0 Z" /><glyph glyph-name="cid2580" unicode="&#x4e86;" d="M89 762 l787 0 q25 0 45.5 -10.5 q20.5 -10.5 30.5 -27.5 q10 -17 7 -39 q-3 -22 -25 -46 l-262 -281 q-9 -10 -13.5 -16 q-4.5 -6 -6 -10.5 q-1.5 -4.5 -1.5 -9 q0 -4.5 0 -10.5 l0 -421 q0 -18 -8 -31.5 q-8 -13.5 -21 -23 q-13 -9.5 -28.5 -14 q-15.5 -4.5 -31.5 -4.5 l-304 0 l0 124 l237 0 l0 410 q0 18 10 35.5 q10 17.5 22 29.5 l217 221 l-655 0 l0 124 Z" /><glyph glyph-name="cid2909" unicode="&#x60a8;" d="M802 507 l23 101 l-328 0 l-32 -98 l-154 0 l91 273 l154 0 l-17 -51 l397 0 q35 0 47.5 -23 q12.5 -23 7.5 -50 l-34 -152 l-155 0 ZM126 179 l0 335 l-81 0 l110 269 l156 0 l-76 -182 l47 0 l0 -422 l-156 0 ZM806 -181 l-412 0 q-13 0 -27 4 q-14 4 -25 12 q-11 8 -18.5 19.5 q-7.5 11.5 -7.5 26.5 l0 264 l156 0 l0 -202 l334 0 l0 -124 ZM519 285 l59 0 l0 282 l155 0 l0 -336 q0 -14 -7.5 -24.5 q-7.5 -10.5 -19 -17 q-11.5 -6.5 -25 -9.5 q-13.5 -3 -25.5 -3 l-137 0 l0 108 ZM280 145 l-58 -326 l-154 0 l57 326 l155 0 ZM949 145 l55 -326 l-154 0 l-55 326 l154 0 ZM528 469 l-62 -267 l-145 0 l62 267 l145 0 ZM929 469 l47 -267 l-144 0 l-48 267 l145 0 ZM694 145 l34 -171 l-155 0 l-34 171 l155 0 Z" /><glyph glyph-name="cid3125" unicode="&#x6b49;" d="M333 -183 l0 314 l-30 0 l0 -314 l-124 0 l0 314 l-110 0 l0 118 l86 0 l0 44 l-113 0 l0 117 l113 0 l0 44 l-86 0 l0 117 l86 0 l0 42 l-98 0 l0 117 l70 0 l-18 50 l130 0 l18 -50 l110 0 l17 50 l132 0 l-18 -50 l96 0 l0 -117 l-152 0 l0 -42 l144 0 l0 -161 l23 0 l0 -117 l-23 0 l0 -103 q0 -29 -18.5 -44 q-18.5 -15 -45.5 -15 l-66 0 l0 -314 l-123 0 ZM873 527 l0 -257 l-10 -40 l35 0 l108 -410 l-128 0 l-60 229 l-47 -188 q-5 -22 -21.5 -32 q-16.5 -10 -35.5 -10 l-93 0 l-11 118 l52 0 l93 377 l0 223 l118 -10 ZM891 319 l6 285 l-146 0 l-19 -285 l-114 0 l34 462 l111 0 l-4 -53 l194 0 q23 0 39 -16 q16 -16 15 -43 l-8 -350 l-108 0 ZM47 -183 l14 281 l105 0 l-15 -281 l-104 0 ZM485 -183 l-13 281 l103 0 l15 -281 l-105 0 ZM277 410 l43 0 l0 44 l-43 0 l0 -44 ZM277 249 l43 0 l0 44 l-43 0 l0 -44 ZM277 571 l43 0 l0 42 l-43 0 l0 -42 ZM482 454 l-40 0 l0 -44 l40 0 l0 44 ZM482 249 l0 44 l-40 0 l0 -44 l40 0 Z" /><glyph glyph-name="cid3176" unicode="&#x8bf7;" d="M748 -82 l83 0 l0 28 l-313 0 l0 -130 l-154 0 l0 435 q0 15 8 26.5 q8 11.5 20 19 q12 7.5 26.5 11.5 q14.5 4 27.5 4 l539 0 l0 -435 q0 -15 -8 -26.5 q-8 -11.5 -20 -19 q-12 -7.5 -26.5 -11.5 q-14.5 -4 -27.5 -4 l-155 0 l0 102 ZM341 452 l256 0 l0 35 l-230 0 l0 112 l230 0 l0 35 l-256 0 l0 111 l256 0 l0 36 l155 0 l0 -36 l254 0 l0 -111 l-254 0 l0 -35 l230 0 l0 -112 l-230 0 l0 -35 l254 0 l0 -110 l-665 0 l0 110 ZM334 -183 l-129 0 q-15 0 -30.5 5 q-15.5 5 -28 14 q-12.5 9 -20 22.5 q-7.5 13.5 -7.5 30.5 l0 523 l-75 0 l0 125 l229 0 l0 -596 l61 0 l0 -124 ZM132 599 l-19 179 l155 0 l19 -179 l-155 0 ZM831 210 l-313 0 l0 -32 l313 0 l0 32 ZM518 46 l313 0 l0 31 l-313 0 l0 -31 Z" /><glyph glyph-name="cid3196" unicode="&#x53d6;" d="M349 -183 l0 85 l-305 0 l0 123 l32 0 l0 616 l-32 0 l0 124 l497 0 l0 -124 l-36 0 l0 -616 l36 0 l0 -123 l-36 0 l0 -85 l-156 0 ZM993 -180 l-98 0 q-23 0 -41 8.5 q-18 8.5 -29 27.5 l-46 92 l-47 -92 q-13 -20 -30 -28 q-17 -8 -40 -8 l-100 0 l-12 120 l65 0 l82 168 l-113 224 q-7 11 -7 25 l0 243 l149 4 l0 -217 l53 -111 l54 110 l0 259 l-260 0 l-12 123 l350 0 q12 0 24.5 -5.5 q12.5 -5.5 23 -14.5 q10.5 -9 17.5 -21 q7 -12 7 -24 l0 -336 q0 -25 -13 -45 l-109 -214 l82 -168 l62 0 l-12 -120 ZM231 25 l118 0 l0 123 l-118 0 l0 -123 ZM231 273 l118 0 l0 123 l-118 0 l0 -123 ZM231 519 l118 0 l0 122 l-118 0 l0 -122 Z" /><glyph glyph-name="cid3203" unicode="&#x6743;" d="M996 -183 l-125 0 q-46 0 -70 37 l-50 88 l-48 -88 q-23 -37 -69 -37 l-126 0 l-12 124 l88 0 l82 151 l-135 239 q-7 11 -7 25 l0 235 l148 10 l0 -221 l77 -136 l89 164 l0 238 l-319 0 l-11 121 l408 0 q12 0 24.5 -5.5 q12.5 -5.5 23 -14.5 q10.5 -9 17.5 -21 q7 -12 7 -24 l0 -307 q0 -25 -13 -45 l-141 -256 l88 -153 l86 0 l-12 -124 ZM182 -182 l0 715 l-140 0 l0 124 l140 0 l0 125 l151 0 l0 -125 l143 0 l0 -124 l-143 0 l0 -715 l-151 0 ZM371 -182 l-15 672 l104 0 l15 -672 l-104 0 ZM45 -182 l13 672 l102 0 l-13 -672 l-102 0 Z" /><glyph glyph-name="cid3390" unicode="&#x5931;" d="M707 155 l274 -336 l-184 0 l-253 311 l-191 -286 q-11 -12 -26.5 -17.5 q-15.5 -5.5 -32.5 -5.5 l-197 0 l-13 124 l156 0 l170 258 l-341 0 l0 124 l391 0 l0 208 l-182 0 l-44 -167 l-155 0 l103 386 l154 0 l-25 -95 l149 0 l0 117 l154 -8 l0 -109 l309 0 l0 -124 l-309 0 l0 -208 l361 0 l0 -124 l-382 0 l-32 -48 l146 0 Z" /><glyph glyph-name="cid3435" unicode="&#x8bd5;" d="M995 -181 l-146 0 q-23 0 -43.5 12.5 q-20.5 12.5 -22.5 38.5 l-44 641 l-381 0 l0 125 l372 0 l-9 142 l153 5 l10 -147 l118 0 l0 -125 l-110 0 l41 -576 l74 0 l-12 -116 ZM350 -182 l-147 0 q-15 0 -30.5 5 q-15.5 5 -28 14 q-12.5 9 -20 22.5 q-7.5 13.5 -7.5 30.5 l0 525 l-75 0 l0 125 l229 0 l0 -598 l79 0 l0 -124 ZM373 1 l87 0 l0 309 l-87 0 l0 123 l325 0 l0 -123 l-84 0 l0 -309 l92 0 l0 -124 l-333 0 l0 124 ZM130 600 l-19 179 l155 0 l19 -179 l-155 0 ZM993 775 l7 -107 l-90 0 l-8 107 l91 0 Z" /><glyph glyph-name="cid3439" unicode="&#x5b88;" d="M60 421 l585 0 l0 111 l155 0 l0 -111 l189 0 l0 -123 l-189 0 l0 -409 q0 -33 -25.5 -51.5 q-25.5 -18.5 -56.5 -18.5 l-247 0 l0 123 l174 0 l0 356 l-585 0 l0 123 ZM61 511 l0 137 q0 17 8 30.5 q8 13.5 20.5 22.5 q12.5 9 28.5 14 q16 5 31 5 l297 0 l0 60 l156 0 l0 -60 l386 0 l0 -209 l-156 0 l0 85 l-615 0 l0 -85 l-156 0 ZM262 -30 l-108 267 l161 0 l108 -267 l-161 0 Z" /><glyph glyph-name="cid3441" unicode="&#x6388;" d="M576 137 l105 -78 l140 71 l0 33 l-455 0 l-10 119 l545 0 q12 0 25.5 -3.5 q13.5 -3.5 24 -11 q10.5 -7.5 17.5 -18.5 q7 -11 7 -25 l0 -112 q0 -35 -28 -53 l-152 -83 l210 -155 l-200 0 l-127 91 l-146 -81 q-11 -8 -24 -11 q-13 -3 -27 -3 l-119 0 l-17 120 l96 0 l118 60 l-195 140 l212 0 ZM44 257 l68 7 l0 253 l-68 0 l0 124 l68 0 l0 141 l155 0 l0 -141 l63 0 l0 -124 l-63 0 l0 -237 l54 6 l11 -122 l-65 -7 l0 -277 q0 -15 -7 -26.5 q-7 -11.5 -18.5 -19.5 q-11.5 -8 -25.5 -12 q-14 -4 -27 -4 l-135 0 l0 124 l58 0 l0 199 l-58 -6 l-10 122 ZM348 304 l0 116 q0 17 8 30.5 q8 13.5 20.5 22.5 q12.5 9 28 14 q15.5 5 30.5 5 l555 0 l0 -188 l-155 0 l0 64 l-332 0 l0 -64 l-155 0 ZM356 781 l631 0 l0 -109 l-631 0 l0 109 ZM725 654 l32 -142 l-145 0 l-32 142 l145 0 ZM977 654 l-32 -142 l-145 0 l32 142 l145 0 ZM517 654 l32 -142 l-144 0 l-32 142 l144 0 Z" /><glyph glyph-name="cid3636" unicode="&#x63d0;" d="M995 -179 l-338 0 q-16 0 -35 5.5 q-19 5.5 -30 15.5 l-66 59 l-10 -83 l-144 0 l42 354 l145 0 l-14 -115 l93 -77 l0 225 l-246 0 l0 124 l609 0 l0 -124 l-207 0 l0 -68 l191 0 l0 -124 l-191 0 l0 -76 l213 0 l-12 -116 ZM979 428 q0 -17 -8.5 -30 q-8.5 -13 -21 -22.5 q-12.5 -9.5 -28 -14.5 q-15.5 -5 -29.5 -5 l-474 0 l0 354 q0 17 8 30 q8 13 21 22 q13 9 28.5 14 q15.5 5 30.5 5 l473 0 l0 -353 ZM43 257 l88 8 l0 252 l-85 0 l0 124 l85 0 l0 136 l155 0 l0 -136 l86 0 l0 -124 l-86 0 l0 -238 l77 7 l11 -122 l-88 -8 l0 -276 q0 -15 -7 -26.5 q-7 -11.5 -18 -19.5 q-11 -8 -25 -12 q-14 -4 -27 -4 l-144 0 l0 124 l66 0 l0 200 l-78 -7 l-10 122 ZM824 480 l0 35 l-251 0 l0 -35 l251 0 ZM824 658 l-251 0 l0 -35 l251 0 l0 35 Z" /><glyph glyph-name="cid3687" unicode="&#x6295;" d="M1008 -180 l-205 0 l-91 89 l-94 -72 q-11 -8 -26.5 -12.5 q-15.5 -4.5 -29.5 -4.5 l-125 0 l-24 125 l112 0 l84 65 l-189 185 l205 0 l98 -97 l109 84 l0 49 l-392 0 l-15 125 l474 0 q15 0 30.5 -4.5 q15.5 -4.5 28.5 -13 q13 -8.5 21.5 -21.5 q8.5 -13 8.5 -30 l0 -139 q0 -16 -7.5 -28.5 q-7.5 -12.5 -19.5 -21.5 l-134 -101 l181 -177 ZM41 267 l106 8 l0 243 l-97 0 l0 124 l97 0 l0 138 l154 0 l0 -138 l100 0 l0 -124 l-100 0 l0 -232 l92 7 l9 -122 l-101 -8 l0 -286 q0 -15 -7 -26.5 q-7 -11.5 -18.5 -19.5 q-11.5 -8 -25.5 -12 q-14 -4 -27 -4 l-143 0 l0 124 l67 0 l0 213 l-97 -7 l-9 122 ZM430 385 l0 317 q0 17 8.5 30.5 q8.5 13.5 21.5 22.5 q13 9 29.5 14 q16.5 5 31.5 5 l425 0 l0 -270 l47 0 l0 -124 l-111 0 q-15 0 -31 4.5 q-16 4.5 -29 13.5 q-13 9 -21.5 22.5 q-8.5 13.5 -8.5 30.5 l0 199 l-207 0 l0 -265 l-155 0 Z" /><glyph glyph-name="cid3799" unicode="&#x7a33;" d="M445 566 l333 0 l22 72 l-211 0 l-16 -45 l-144 0 l69 188 l144 0 l-10 -27 l264 0 q12 0 25 -5 q13 -5 23 -13.5 q10 -8.5 15 -20.5 q5 -12 2 -25 l-36 -124 l78 0 l0 -338 q0 -17 -7 -30.5 q-7 -13.5 -19 -23 q-12 -9.5 -27 -14.5 q-15 -5 -31 -5 l-474 0 l0 124 l403 0 l0 26 l-384 0 l0 108 l384 0 l0 29 l-403 0 l0 124 ZM157 -184 l0 622 l-115 0 l0 122 l115 0 l0 93 l-101 0 l0 123 l344 0 l0 -123 l-102 0 l0 -93 l115 0 l0 -122 l-115 0 l0 -622 l-141 0 ZM866 -181 l-208 0 q-12 0 -25 3.5 q-13 3.5 -23.5 11 q-10.5 7.5 -17.5 18.5 q-7 11 -7 25 l0 256 l146 0 l0 -198 l135 0 l0 -116 ZM42 -184 l22 581 l81 0 l-24 -581 l-79 0 ZM334 -184 l-20 581 l79 0 l20 -581 l-79 0 ZM567 131 l-19 -313 l-115 0 l18 313 l116 0 ZM992 131 l16 -313 l-112 0 l-18 313 l114 0 ZM854 131 l10 -161 l-104 0 l-11 161 l105 0 Z" /><glyph glyph-name="cid3840" unicode="&#x52a1;" d="M275 601 l250 -89 l252 91 l0 25 l-520 0 l-48 -87 l-159 0 l134 240 l159 0 l-16 -29 l521 0 q14 0 28.5 -4.5 q14.5 -4.5 26.5 -13 q12 -8.5 19.5 -21 q7.5 -12.5 7.5 -28.5 l0 -122 q0 -23 -13.5 -38.5 q-13.5 -15.5 -33.5 -22.5 l-163 -60 l106 -37 l174 0 l-11 -125 l-186 0 q-21 0 -39 6 l-237 86 l-233 -85 q-10 -3 -20 -5 q-10 -2 -21 -2 l-185 0 l-12 125 l175 0 l102 37 l-121 44 l63 115 ZM358 -148 q-9 -20 -28.5 -27.5 q-19.5 -7.5 -39.5 -7.5 l-211 0 l-12 124 l166 0 l66 144 l-241 0 l0 123 l297 0 l49 106 l139 -48 l-26 -58 l450 0 l0 -323 q0 -16 -7.5 -28.5 q-7.5 -12.5 -19.5 -21 q-12 -8.5 -26.5 -13 q-14.5 -4.5 -28.5 -4.5 l-257 0 l0 124 l184 0 l0 143 l-350 0 l-104 -233 Z" /><glyph glyph-name="cid3871" unicode="&#x559c;" d="M958 57 l0 -173 q0 -15 -7.5 -26 q-7.5 -11 -18.5 -18.5 q-11 -7.5 -24.5 -11 q-13.5 -3.5 -26.5 -3.5 l-789 0 l0 172 q0 15 7.5 26.5 q7.5 11.5 18.5 19 q11 7.5 25 11 q14 3.5 27 3.5 l788 0 ZM953 495 l0 -179 q0 -14 -7 -24.5 q-7 -10.5 -17.5 -17.5 q-10.5 -7 -23 -10.5 q-12.5 -3.5 -24.5 -3.5 l0 1 l-784 0 l0 180 q0 14 7 24 q7 10 18 17 q11 7 23.5 10 q12.5 3 24.5 3 l783 0 ZM84 615 l363 0 l0 32 l-391 0 l0 101 l391 0 l0 33 l156 0 l0 -33 l391 0 l0 -101 l-391 0 l0 -32 l363 0 l0 -97 l-882 0 l0 97 ZM59 187 l139 0 l-34 52 l164 0 l34 -52 l325 0 l35 52 l164 0 l-35 -52 l140 0 l0 -107 l-932 0 l0 107 ZM247 -42 l0 -34 l556 0 l0 34 l-556 0 ZM252 394 l0 -33 l546 0 l0 33 l-546 0 Z" /><glyph glyph-name="cid3907" unicode="&#x73b0;" d="M425 172 l0 527 q0 34 24.5 53 q24.5 19 59.5 19 l467 0 l0 -599 l-156 0 l0 476 l-240 0 l0 -476 l-155 0 ZM43 -18 l97 0 l0 257 l-84 0 l0 124 l84 0 l0 254 l-90 0 l0 124 l335 0 l0 -124 l-91 0 l0 -254 l85 0 l0 -124 l-85 0 l0 -257 l98 0 l0 -124 l-349 0 l0 124 ZM488 -55 l135 268 l0 373 l152 -9 l0 -382 l-29 -58 l101 0 l0 -207 l47 0 l0 111 l112 0 l0 -175 q0 -23 -21.5 -35.5 q-21.5 -12.5 -42.5 -12.5 l-175 0 q-23 0 -44 12.5 q-21 12.5 -21 35.5 l0 181 l-95 -193 q-8 -17 -25 -25.5 q-17 -8.5 -38 -8.5 l-114 0 l-19 125 l77 0 Z" /><glyph glyph-name="cid3992" unicode="&#x578b;" d="M395 196 l0 199 l-133 0 l-11 -145 q-2 -26 -23.5 -40 q-21.5 -14 -46.5 -14 l-123 0 l-11 125 l55 0 l5 74 l-63 0 l0 124 l73 0 l9 118 l-68 0 l0 124 l560 0 l0 -124 l-68 0 l0 -118 l83 0 l0 -124 l-83 0 l0 -199 l-155 0 ZM43 -58 l403 0 l0 59 l-362 0 l0 124 l362 0 l0 49 l156 0 l0 -49 l363 0 l0 -124 l-363 0 l0 -59 l404 0 l0 -123 l-963 0 l0 123 ZM710 315 l135 0 l0 463 l155 0 l0 -524 q0 -15 -7 -26.5 q-7 -11.5 -18 -19.5 q-11 -8 -25 -12 q-14 -4 -27 -4 l-213 0 l0 123 ZM662 348 l0 392 l140 0 l0 -392 l-140 0 ZM271 519 l124 0 l0 118 l-114 0 l-10 -118 Z" /><glyph glyph-name="cid4431" unicode="&#x503a;" d="M304 461 l270 0 l0 32 l-246 0 l0 109 l246 0 l0 33 l-262 0 l0 116 l262 0 l0 31 l156 0 l0 -31 l263 0 l0 -116 l-263 0 l0 -33 l247 0 l0 -109 l-247 0 l0 -32 l270 0 l0 -116 l-696 0 l0 116 ZM108 -182 l0 573 l-68 0 l110 392 l154 0 l-80 -283 l39 0 l0 -682 l-155 0 ZM316 7 l0 236 q0 16 8 29 q8 13 20 22 q12 9 27.5 14 q15.5 5 30.5 5 l586 0 l0 -302 l-155 0 l0 185 l-361 0 l0 -189 l-156 0 ZM823 -181 l-150 139 l-132 -112 q-22 -26 -60 -26 l-149 0 l-18 110 l108 0 l153 128 l0 116 l154 -9 l0 -145 q0 -12 -8 -23 l-5 -4 l105 0 l188 -174 l-186 0 Z" /><glyph glyph-name="cid4532" unicode="&#x503c;" d="M334 732 l249 0 l0 51 l154 0 l0 -51 l250 0 l0 -125 l-250 0 l0 -50 l224 0 l0 -614 l45 0 l0 -124 l-691 0 l0 124 l45 0 l0 545 q0 17 8 30 q8 13 21 21.5 q13 8.5 28 13 q15 4.5 30 4.5 l136 0 l0 50 l-249 0 l0 125 ZM120 -185 l0 565 l-76 0 l127 400 l154 0 l-89 -280 l39 0 l0 -685 l-155 0 ZM514 92 l291 0 l0 42 l-291 0 l0 -42 ZM514 242 l291 0 l0 41 l-291 0 l0 -41 ZM805 433 l-291 0 l0 -41 l291 0 l0 41 ZM514 -57 l291 0 l0 41 l-291 0 l0 -41 Z" /><glyph glyph-name="cid4567" unicode="&#x91cd;" d="M63 -65 l384 0 l0 30 l-357 0 l0 106 l357 0 l0 27 l-347 0 l0 323 q0 32 20 47.5 q20 15.5 48 15.5 l279 0 l0 29 l-384 0 l0 105 l384 0 l0 31 l-352 0 l0 105 l860 0 l0 -105 l-352 0 l0 -31 l384 0 l0 -105 l-384 0 l0 -29 l347 0 l0 -322 q0 -32 -20.5 -48 q-20.5 -16 -47.5 -16 l-279 0 l0 -27 l357 0 l0 -106 l-357 0 l0 -30 l384 0 l0 -113 l-924 0 l0 113 ZM255 379 l0 -39 l192 0 l0 39 l-192 0 ZM794 379 l-191 0 l0 -39 l191 0 l0 39 ZM255 204 l192 0 l0 38 l-192 0 l0 -38 ZM794 204 l0 38 l-191 0 l0 -38 l191 0 Z" /><glyph glyph-name="cid4615" unicode="&#x8f6c;" d="M722 -183 l-210 277 l174 0 l53 -70 l81 135 l-215 0 q-32 0 -54 20.5 q-22 20.5 -16 51.5 l26 123 l-107 0 l0 124 l134 0 l23 106 l-120 0 l0 124 l146 0 l16 72 l143 -18 l-12 -54 l187 0 l0 -124 l-213 0 l-22 -106 l273 0 l0 -124 l-299 0 l-16 -78 l242 0 q15 0 28.5 -6.5 q13.5 -6.5 22.5 -17 q9 -10.5 11 -25.5 q2 -15 -5 -31 l-169 -284 l72 -95 l-174 0 ZM230 -184 l0 151 l-181 0 l0 124 l181 0 l0 127 l-121 0 q-16 0 -29.5 6 q-13.5 6 -22.5 16 q-9 10 -13 22.5 q-4 12.5 -2 24.5 l48 301 l-48 0 l0 123 l68 0 l12 70 l141 -15 l-9 -55 l205 0 l0 -123 l-225 0 l-40 -247 l53 0 l0 181 l144 0 l0 -181 l58 0 l0 -123 l-73 0 l0 -127 l83 0 l0 -124 l-83 0 l0 -151 l-146 0 Z" /><glyph glyph-name="cid4647" unicode="&#x8d44;" d="M116 -8 l0 231 q0 35 25 54.5 q25 19.5 57 19.5 l748 0 l0 -305 l-155 0 l0 181 l-520 0 l0 -181 l-155 0 ZM969 -181 l-222 0 q-24 0 -45 13 l-174 118 l-174 -118 q-20 -13 -44 -13 l-223 0 l-12 121 l186 0 l193 125 l0 82 l154 -10 l0 -79 l176 -118 l197 0 l-12 -121 ZM800 540 l15 100 l-336 0 l-22 -100 l-154 0 l53 243 l154 0 l-4 -19 l407 0 q28 0 49.5 -18.5 q21.5 -18.5 16.5 -50.5 l-24 -155 l-155 0 ZM715 609 l0 -95 q0 -10 -5 -20 l77 0 l211 -171 l-202 0 l-143 115 l-111 -97 q-11 -11 -25.5 -15 q-14.5 -4 -30.5 -4 l-165 0 l-11 125 l137 0 l115 100 l0 72 l153 -10 ZM273 563 l-67 -240 l-154 0 l67 240 l154 0 ZM119 605 l-48 178 l154 0 l48 -178 l-154 0 Z" /><glyph glyph-name="cid4657" unicode="&#x2f83;&#x81ea;" d="M956 716 l0 -818 q0 -17 -8 -30 q-8 -13 -20.5 -22 q-12.5 -9 -28.5 -14 q-16 -5 -31 -5 l-774 0 l0 818 q0 17 8 30 q8 13 21 22 q13 9 28.5 14 q15.5 5 30.5 5 l217 0 l15 62 l155 0 l-15 -62 l402 0 ZM250 199 l551 0 l0 136 l-551 0 l0 -136 ZM250 593 l0 -134 l551 0 l0 134 l-551 0 ZM801 -50 l0 126 l-551 0 l0 -126 l551 0 Z" /><glyph glyph-name="exclam" unicode="!" d="M207 -143 l-165 0 l0 170 l165 0 l0 -170 ZM207 114 l-165 0 l0 625 l165 0 l0 -625 Z" /></font>
</defs>
</svg>
