<?xml version="1.0" encoding="UTF-8"?>
<svg xmlns="http://www.w3.org/2000/svg" xmlns:xlink="http://www.w3.org/1999/xlink" version="1.2" >
<font id="iconfont">
<font-face  font-family="iconfont" units-per-em="2048" ascent="1434" descent="-410" font-style="normal" font-weight="400" font-stretch="normal" cap-height="1434" x-height="1024" underline-position="-517" underline-thickness="150" />
<missing-glyph  horiz-adv-x="1024" d="M100 0 L100 1434 L924 1434 L924 0 L100 0 Z M150 50 L874 50 L874 1384 L150 1384 L150 50 Z M325 1148 Q356 1176 383 1191 Q436 1221 495 1221 Q587 1221 643 1173.5 Q699 1126 699 1046 Q699 997 676 947.5 Q653 898 589 818 Q526 738 490 686 Q454 634 454 587 Q454 549 478 454 L446 454 Q411 551 411 602 Q411 678 492.5 820 Q574 962 574 1037 Q574 1094 541 1127 Q508 1160 450 1160 Q412 1160 381 1143 Q355 1128 325 1103 L325 1148 Z M389 334 L446 392 Q457 402 466 402 Q476 402 488 391 L544 331 Q553 320 553 311 Q553 300 543 289 L487 227 Q473 213 466 213 Q455 213 446 223 L385 294 Q378 303 378 312 Q378 322 389 334 Z " />
<glyph glyph-name="&amp;#x0;" d="" />
<glyph glyph-name="&amp;#x1d;" unicode="&#x1d;" d="" />
<glyph glyph-name="&amp;#x20;" unicode="&#x20;" horiz-adv-x="508" d="" />
<glyph glyph-name="&amp;#xa0;" unicode="&#xa0;" horiz-adv-x="508" d="" />
<glyph glyph-name="exclam" unicode="&#x21;" horiz-adv-x="672" d="M313 328 L264 1364 Q264 1410 285 1433 Q306 1456 347 1456 Q389 1456 409.5 1433 Q430 1410 430 1364 L350 328 L313 328 Z M223 167 L305 251 Q320 265 334 265 Q347 265 365 249 L445 163 Q457 147 457 134 Q457 119 443 103 L363 15 Q343 -5 334 -5 Q318 -5 305 9 L217 110 Q207 123 207 136 Q207 151 223 167 Z " />
<glyph glyph-name="quotedbl" unicode="&#x22;" horiz-adv-x="672" d="M197 1108 L167 1108 L105 1467 Q101 1490 101 1500 Q101 1537 121.5 1557 Q142 1577 181 1577 Q220 1577 241.5 1557.5 Q263 1538 263 1501 Q263 1493 259 1467 L197 1108 Z M509 1108 L479 1108 L417 1467 Q413 1490 413 1500 Q413 1537 433.5 1557 Q454 1577 493 1577 Q532 1577 553.5 1557.5 Q575 1538 575 1501 Q575 1493 571 1467 L509 1108 Z " />
<glyph glyph-name="numbersign" unicode="&#x23;" horiz-adv-x="1336" d="M596 859 L511 569 L753 569 L839 859 L596 859 Z M673 1434 L766 1434 L625 957 L867 957 L1009 1434 L1101 1434 L960 957 L1219 957 L1190 860 L931 860 L848 570 L1127 570 L1097 472 L817 472 L677 0 L585 0 L724 472 L484 472 L342 0 L250 0 L390 472 L117 472 L147 570 L418 570 L504 860 L209 860 L238 957 L533 957 L673 1434 Z " />
<glyph glyph-name="dollar" unicode="&#x24;" horiz-adv-x="2048" d="M1072 512 L1072 64 Q1248 80 1256 288 Q1264 416 1072 512 Z M1392 984 L1352 984 Q1264 1272 1072 1312 L1072 872 Q1504 672 1488 408 Q1488 56 1072 0 L1072 -184 L960 -184 L960 0 Q816 0 616 88 L616 408 L656 400 Q736 80 952 64 L952 576 Q568 744 576 1016 Q592 1328 960 1376 L960 1536 L1072 1536 L1072 1384 Q1288 1344 1392 1272 L1392 984 Z M952 928 L952 1320 Q768 1272 768 1136 Q768 984 952 928 Z " />
<glyph glyph-name="percent" unicode="&#x25;" horiz-adv-x="2048" d="M488 808 Q488 696 592 696 Q816 744 888 1160 Q880 1232 824 1256 Q808 1256 784 1272 Q768 1296 760 1296 Q576 1224 488 808 Z M1336 192 Q1328 56 1440 64 Q1656 120 1728 504 Q1720 648 1616 656 Q1432 624 1336 192 Z M1488 1416 L688 0 L568 0 L1280 1248 L1272 1248 Q1152 1200 1048 1200 Q992 1192 952 1208 Q912 640 512 600 Q272 616 256 872 Q280 1296 696 1392 Q776 1392 856 1336 Q864 1336 872 1336 Q936 1264 1064 1272 Q1232 1272 1376 1384 Q1384 1408 1416 1416 L1488 1416 Z M1096 240 Q1136 680 1544 760 Q1792 752 1800 512 Q1728 0 1368 -16 Q1112 0 1096 240 Z " />
<glyph glyph-name="ampersand" unicode="&#x26;" horiz-adv-x="1683" d="M1051 196 L497 879 Q379 879 317.5 793 Q256 707 256 589 Q256 498 291.5 407.5 Q327 317 393 243 Q465 160 558 116 Q651 72 752 72 Q840 72 921 105.5 Q1002 139 1051 196 Z M1394 0 Q1338 0 1255 25 Q1172 50 1088 157 Q1021 83 913 33.5 Q805 -16 672 -16 Q443 -16 297.5 134.5 Q152 285 152 520 Q152 681 228 786.5 Q304 892 453 938 Q411 999 390.5 1054 Q370 1109 370 1165 Q370 1270 447 1362 Q524 1454 629 1454 Q697 1454 771 1415 Q780 1409 789 1409 Q812 1409 827 1454 L873 1454 L969 1173 L923 1173 Q868 1306 768 1351 Q683 1388 627 1388 Q562 1388 521 1342.5 Q480 1297 480 1225 Q480 1094 582 958 L1113 288 Q1211 434 1234 532 Q1251 610 1251 662 Q1251 759 1189 759 L1099 759 L1099 809 L1542 809 L1542 759 L1452 759 Q1357 759 1307 532 Q1276 400 1152 240 Q1261 104 1400 104 L1416 104 Q1559 121 1608 232 L1657 231 L1554 0 L1394 0 Z " />
<glyph glyph-name="quotesingle" unicode="&#x27;" horiz-adv-x="346" d="M197 1108 L167 1108 L105 1467 Q101 1490 101 1500 Q101 1537 121.5 1557 Q142 1577 181 1577 Q220 1577 241.5 1557.5 Q263 1538 263 1501 Q263 1493 259 1467 L197 1108 Z " />
<glyph glyph-name="parenleft" unicode="&#x28;" horiz-adv-x="758" d="M252 601 Q254 878 351.5 1131 Q449 1384 620 1573 L700 1573 Q528 1331 470 1135 Q413 942 413 612 L413 590 Q413 260 470 68 Q528 -128 700 -370 L620 -370 Q449 -181 351.5 71.5 Q254 324 252 601 Z " />
<glyph glyph-name="parenright" unicode="&#x29;" horiz-adv-x="758" d="M138 -370 L58 -370 Q230 -128 288 68 Q345 260 345 590 L345 612 Q345 942 288 1135 Q230 1331 58 1573 L138 1573 Q309 1384 406.5 1131 Q504 878 506 601 Q504 324 406.5 71.5 Q309 -181 138 -370 Z " />
<glyph glyph-name="asterisk" unicode="&#x2a;" horiz-adv-x="1024" d="M498 1294 Q494 1365 461 1424 Q424 1490 424 1508 Q424 1540 447.5 1559.5 Q471 1579 510 1579 Q547 1579 571.5 1561 Q596 1543 596 1514 Q596 1493 560 1425 Q527 1364 523 1295 Q589 1320 636 1370 Q687 1425 705 1431 Q716 1434 726 1434 Q744 1434 761 1424 Q787 1407 799 1371 Q805 1352 805 1335 Q805 1320 801 1307 Q791 1277 763 1269 Q757 1267 744 1267 Q719 1267 668 1276 Q640 1281 613 1281 Q572 1281 532 1270 Q576 1215 637 1187 Q705 1155 716 1140 Q729 1122 729 1102 Q729 1093 727 1085 Q719 1055 688 1032 Q659 1010 629 1010 Q628 1010 628 1011 Q597 1011 580 1034 Q568 1051 558 1128 Q548 1195 511 1253 Q473 1195 465 1129 Q456 1054 445 1039 Q426 1014 396 1012 L391 1012 Q363 1012 334 1033 Q304 1054 295 1084 Q291 1094 291 1104 Q291 1121 302 1136 Q315 1153 385 1187 Q446 1216 490 1269 Q449 1280 410 1280 Q383 1280 357 1275 Q303 1264 279 1264 Q270 1264 265 1266 Q235 1275 224 1304 Q218 1317 218 1333 Q218 1350 224 1369 Q235 1404 260 1422 Q277 1434 294 1434 Q303 1434 312 1431 Q332 1425 386 1369 Q433 1320 498 1294 Z " />
<glyph glyph-name="plus" unicode="&#x2b;" horiz-adv-x="1014" d="M437 647 L87 647 L87 787 L437 787 L437 1156 L438 1157 L577 1157 L577 787 L926 787 L927 786 L927 647 L577 647 L577 277 L437 277 L437 647 Z " />
<glyph glyph-name="comma" unicode="&#x2c;" horiz-adv-x="557" d="M238 258 Q282 258 326.5 192.5 Q371 127 371 41 Q371 -68 300 -185.5 Q229 -303 161 -303 L161 -260 Q234 -217 248 -70 Q248 49 119 91 L119 133 L238 258 Z " />
<glyph glyph-name="&amp;#x2d;" unicode="&#x2d;" horiz-adv-x="670" d="M156 409 Q116 409 116 437 L116 520 Q116 549 157 549 L513 549 Q554 549 554 520 L554 437 Q554 409 514 409 L156 409 Z " />
<glyph glyph-name="&amp;#xad;" unicode="&#xad;" horiz-adv-x="670" d="M156 409 Q116 409 116 437 L116 520 Q116 549 157 549 L513 549 Q554 549 554 520 L554 437 Q554 409 514 409 L156 409 Z " />
<glyph glyph-name="period" unicode="&#x2e;" horiz-adv-x="557" d="M145 167 L227 251 Q242 265 256 265 Q269 265 287 249 L367 163 Q379 147 379 134 Q379 119 365 103 L285 15 Q265 -5 256 -5 Q240 -5 227 9 L139 110 Q129 123 129 136 Q129 151 145 167 Z " />
<glyph glyph-name="slash" unicode="&#x2f;" horiz-adv-x="569" d="M93 -50 L13 -50 L554 1434 L634 1434 L93 -50 Z " />
<glyph glyph-name="zero" unicode="0" horiz-adv-x="1024" d="M648 456 L648 920 Q648 1360 512 1352 Q360 1352 376 920 L376 456 Q368 8 512 32 Q600 32 624 144 Q632 208 640 296 Q640 376 648 456 Z M48 680 Q64 1344 512 1408 Q944 1336 976 680 Q936 24 512 -8 Q72 24 48 680 Z " />
<glyph glyph-name="one" unicode="1" horiz-adv-x="1024" d="M904 48 L904 0 L136 0 L136 48 Q416 32 384 256 L384 1040 Q384 1184 304 1184 Q256 1176 136 1136 L136 1184 L648 1408 L688 1408 L688 240 Q656 24 904 48 Z " />
<glyph glyph-name="two" unicode="2" horiz-adv-x="1024" d="M976 432 L888 0 L32 0 L32 48 Q640 656 616 912 Q584 1168 368 1176 Q200 1168 120 992 L64 992 Q208 1400 512 1408 Q880 1376 896 1024 Q896 808 656 584 L328 272 L640 272 Q896 240 928 432 L976 432 Z " />
<glyph glyph-name="three" unicode="3" horiz-adv-x="1024" d="M120 1072 L72 1096 Q240 1392 536 1408 Q864 1392 880 1136 Q880 952 712 872 Q944 760 960 504 Q904 8 344 -16 Q40 -8 32 160 Q40 256 160 272 Q248 272 360 160 Q456 72 520 72 Q720 80 728 320 Q728 600 312 728 L312 760 Q576 832 576 1032 Q568 1232 360 1240 Q216 1240 120 1072 Z " />
<glyph glyph-name="four" unicode="4" horiz-adv-x="1024" d="M840 520 L976 520 L976 296 L840 296 L840 0 L544 0 L544 296 L40 296 L40 528 Q232 840 680 1408 L840 1408 L840 520 Z M552 520 L552 1128 L544 1128 L120 520 L552 520 Z " />
<glyph glyph-name="five" unicode="5" horiz-adv-x="1024" d="M304 1128 L264 960 Q552 952 712 856 Q912 728 920 480 Q888 8 336 0 Q56 0 48 160 Q48 280 176 288 Q240 288 368 192 Q496 112 560 112 Q752 120 760 320 Q744 504 544 592 Q424 640 160 672 Q128 672 104 680 L304 1384 L960 1384 L872 1128 L304 1128 Z " />
<glyph glyph-name="six" unicode="6" horiz-adv-x="1024" d="M664 320 Q672 784 488 768 Q408 768 400 744 Q392 736 384 672 Q376 600 376 560 Q360 0 536 32 Q680 16 664 320 Z M960 1408 L960 1352 Q512 1264 416 824 Q488 864 600 864 Q968 840 976 432 Q920 0 528 -8 Q64 8 56 584 Q112 1280 960 1408 Z " />
<glyph glyph-name="seven" unicode="7" horiz-adv-x="1024" d="M976 1384 L496 0 L304 0 L712 1104 L288 1104 Q128 1112 88 928 L32 928 L128 1384 L976 1384 Z " />
<glyph glyph-name="eight" unicode="8" horiz-adv-x="1024" d="M312 320 Q320 48 504 40 Q688 40 688 280 Q696 464 416 624 Q408 616 400 600 Q304 472 312 320 Z M352 1184 Q352 1000 616 864 Q704 968 704 1096 Q696 1344 520 1352 Q368 1336 352 1184 Z M552 1408 Q920 1400 944 1112 Q944 912 664 824 Q968 632 976 392 Q952 0 496 -8 Q80 0 64 320 Q56 576 376 664 Q80 816 88 1048 Q104 1392 552 1408 Z " />
<glyph glyph-name="nine" unicode="9" horiz-adv-x="1024" d="M64 -8 L64 24 Q480 96 616 560 Q568 536 520 528 Q480 512 424 520 Q56 536 56 952 Q96 1392 496 1408 Q952 1376 968 800 Q904 80 64 -8 Z M368 1064 Q352 592 536 616 Q616 616 632 640 Q632 648 632 712 Q640 792 648 824 Q648 1136 608 1240 Q576 1352 488 1352 Q344 1360 368 1064 Z " />
<glyph glyph-name="colon" unicode="&#x3a;" horiz-adv-x="557" d="M145 167 L227 251 Q242 265 256 265 Q269 265 287 249 L367 163 Q379 147 379 134 Q379 119 365 103 L285 15 Q265 -5 256 -5 Q240 -5 227 9 L139 110 Q129 123 129 136 Q129 151 145 167 Z M145 860 L227 944 Q242 958 256 958 Q269 958 287 942 L367 856 Q379 840 379 827 Q379 812 365 796 L285 708 Q265 688 256 688 Q240 688 227 702 L139 803 Q129 816 129 829 Q129 844 145 860 Z " />
<glyph glyph-name="&amp;#x3b;" unicode="&#x3b;" horiz-adv-x="557" d="M145 859 L227 943 Q242 957 256 957 Q269 957 287 941 L367 855 Q379 839 379 826 Q379 811 365 795 L285 707 Q265 687 256 687 Q240 687 227 701 L139 802 Q129 815 129 828 Q129 843 145 859 Z M238 258 Q282 258 326.5 192.5 Q371 127 371 41 Q371 -68 300 -185.5 Q229 -303 161 -303 L161 -260 Q234 -217 248 -70 Q248 49 119 91 L119 133 L238 258 Z " />
<glyph glyph-name="&amp;#x37e;" unicode="&#x37e;" horiz-adv-x="557" d="M145 859 L227 943 Q242 957 256 957 Q269 957 287 941 L367 855 Q379 839 379 826 Q379 811 365 795 L285 707 Q265 687 256 687 Q240 687 227 701 L139 802 Q129 815 129 828 Q129 843 145 859 Z M238 258 Q282 258 326.5 192.5 Q371 127 371 41 Q371 -68 300 -185.5 Q229 -303 161 -303 L161 -260 Q234 -217 248 -70 Q248 49 119 91 L119 133 L238 258 Z " />
<glyph glyph-name="less" unicode="&#x3c;" horiz-adv-x="1014" d="M927 1074 L302 715 L927 360 L927 193 L87 674 L87 757 L927 1241 L927 1074 Z " />
<glyph glyph-name="equal" unicode="&#x3d;" horiz-adv-x="1014" d="M87 631 L927 631 L927 491 L87 491 L87 631 Z M87 943 L927 943 L927 803 L87 803 L87 943 Z " />
<glyph glyph-name="greater" unicode="&#x3e;" horiz-adv-x="1014" d="M87 1241 L927 757 L927 674 L87 193 L87 360 L712 715 L87 1074 L87 1241 Z " />
<glyph glyph-name="question" unicode="&#x3f;" horiz-adv-x="748" d="M132 1330 Q260 1434 374 1434 Q506 1434 586 1366 Q666 1298 666 1184 Q666 1115 633.5 1044 Q601 973 509 858 Q419 745 367.5 670.5 Q316 596 316 528 Q316 465 351 339 L304 339 Q254 477 254 550 Q254 659 370.5 862 Q487 1065 487 1171 Q487 1253 440 1300 Q393 1347 310 1347 Q226 1347 132 1266 L132 1330 Z M223 167 L305 251 Q320 265 334 265 Q347 265 365 249 L445 163 Q457 147 457 134 Q457 119 443 103 L363 15 Q343 -5 334 -5 Q318 -5 305 9 L217 110 Q207 123 207 136 Q207 151 223 167 Z " />
<glyph glyph-name="at" unicode="&#x40;" horiz-adv-x="2019" d="M972 622 Q889 612 821 542 Q753 472 753 343 Q753 236 817 149 Q881 62 1000 62 Q1097 67 1126 229 L1126 705 Q1072 642 972 622 Z M1360 29 Q1297 30 1259.5 47 Q1222 64 1198 101 Q1169 64 1116 36.5 Q1063 9 983 9 Q839 9 726.5 109.5 Q614 210 614 343 Q615 430 667 509.5 Q719 589 799.5 624.5 Q880 660 973 674 Q1040 690 1083 716.5 Q1126 743 1126 791 Q1124 860 1085 916 Q1046 972 956 972 Q884 972 834.5 913 Q785 854 784 788 L739 788 L739 947 Q739 967 811 987 Q884 1007 989 1007 Q1098 1005 1182.5 942.5 Q1267 880 1267 785 L1267 196 Q1267 79 1361 79 Q1546 114 1628 270.5 Q1710 427 1710 653 Q1690 988 1478 1193 Q1281 1381 998 1381 Q793 1381 605.5 1243.5 Q418 1106 336 888 Q269 710 269 527 Q269 214 398.5 15.5 Q528 -183 703.5 -275 Q879 -367 1022 -367 Q1296 -367 1597 -159 L1597 -234 Q1334 -418 1026 -418 Q786 -418 565 -295.5 Q344 -173 222 46.5 Q100 266 100 508 Q100 750 224 972.5 Q348 1195 569.5 1314.5 Q791 1434 1026 1434 Q1388 1434 1635 1204 Q1882 974 1882 638 Q1882 368 1706 199 Q1531 31 1360 29 Z " />
<glyph glyph-name="A" unicode="A" horiz-adv-x="1540" d="" />
<glyph glyph-name="B" unicode="B" horiz-adv-x="1219" d="" />
<glyph glyph-name="C" unicode="C" horiz-adv-x="1399" d="" />
<glyph glyph-name="D" unicode="D" horiz-adv-x="1518" d="" />
<glyph glyph-name="E" unicode="E" horiz-adv-x="1151" d="" />
<glyph glyph-name="F" unicode="F" horiz-adv-x="1079" d="" />
<glyph glyph-name="G" unicode="G" horiz-adv-x="1479" d="" />
<glyph glyph-name="H" unicode="H" horiz-adv-x="1579" d="" />
<glyph glyph-name="I" unicode="I" horiz-adv-x="657" d="" />
<glyph glyph-name="J" unicode="J" horiz-adv-x="657" d="" />
<glyph glyph-name="K" unicode="K" horiz-adv-x="1382" d="" />
<glyph glyph-name="L" unicode="L" horiz-adv-x="1128" d="" />
<glyph glyph-name="M" unicode="M" horiz-adv-x="1798" d="" />
<glyph glyph-name="N" unicode="N" horiz-adv-x="1554" d="" />
<glyph glyph-name="O" unicode="O" horiz-adv-x="1614" d="" />
<glyph glyph-name="P" unicode="P" horiz-adv-x="1120" d="" />
<glyph glyph-name="Q" unicode="Q" horiz-adv-x="1614" d="" />
<glyph glyph-name="R" unicode="R" horiz-adv-x="1283" d="" />
<glyph glyph-name="S" unicode="S" horiz-adv-x="1085" d="" />
<glyph glyph-name="T" unicode="T" horiz-adv-x="1350" d="" />
<glyph glyph-name="U" unicode="U" horiz-adv-x="1501" d="" />
<glyph glyph-name="V" unicode="V" horiz-adv-x="1456" d="" />
<glyph glyph-name="W" unicode="W" horiz-adv-x="2030" d="" />
<glyph glyph-name="X" unicode="X" horiz-adv-x="1350" d="" />
<glyph glyph-name="Y" unicode="Y" horiz-adv-x="1233" d="" />
<glyph glyph-name="Z" unicode="Z" horiz-adv-x="1124" d="" />
<glyph glyph-name="bracketleft" unicode="&#x5b;" horiz-adv-x="758" d="" />
<glyph glyph-name="backslash" unicode="&#x5c;" horiz-adv-x="569" d="" />
<glyph glyph-name="bracketright" unicode="&#x5d;" horiz-adv-x="758" d="" />
<glyph glyph-name="asciicircum" unicode="&#x5e;" horiz-adv-x="1014" d="" />
<glyph glyph-name="underscore" unicode="&#x5f;" horiz-adv-x="1024" d="M0 -100 L1024 -100 L1024 -160 L0 -160 L0 -100 Z " />
<glyph glyph-name="grave" unicode="&#x60;" horiz-adv-x="1024" d="M673 1079 L604 1079 L274 1281 Q243 1301 227.5 1321 Q212 1341 212 1363 Q212 1394 232.5 1414 Q253 1434 286 1434 Q306 1434 326.5 1422 Q347 1410 382 1375 L673 1079 Z " />
<glyph glyph-name="a" unicode="a" horiz-adv-x="922" d="" />
<glyph glyph-name="b" unicode="b" horiz-adv-x="995" d="" />
<glyph glyph-name="c" unicode="c" horiz-adv-x="905" d="" />
<glyph glyph-name="d" unicode="d" horiz-adv-x="1040" d="" />
<glyph glyph-name="e" unicode="e" horiz-adv-x="909" d="" />
<glyph glyph-name="f" unicode="f" horiz-adv-x="559" d="" />
<glyph glyph-name="g" unicode="g" horiz-adv-x="899" d="" />
<glyph glyph-name="h" unicode="h" horiz-adv-x="1104" d="" />
<glyph glyph-name="i" unicode="i" horiz-adv-x="514" d="" />
<glyph glyph-name="j" unicode="j" horiz-adv-x="510" d="" />
<glyph glyph-name="k" unicode="k" horiz-adv-x="1026" d="" />
<glyph glyph-name="l" unicode="l" horiz-adv-x="522" d="" />
<glyph glyph-name="m" unicode="m" horiz-adv-x="1569" d="" />
<glyph glyph-name="n" unicode="n" horiz-adv-x="1108" d="" />
<glyph glyph-name="o" unicode="o" horiz-adv-x="1010" d="" />
<glyph glyph-name="p" unicode="p" horiz-adv-x="1010" d="" />
<glyph glyph-name="q" unicode="q" horiz-adv-x="1024" d="" />
<glyph glyph-name="r" unicode="r" horiz-adv-x="692" d="" />
<glyph glyph-name="s" unicode="s" horiz-adv-x="702" d="" />
<glyph glyph-name="t" unicode="t" horiz-adv-x="674" d="" />
<glyph glyph-name="u" unicode="u" horiz-adv-x="1059" d="" />
<glyph glyph-name="v" unicode="v" horiz-adv-x="993" d="" />
<glyph glyph-name="w" unicode="w" horiz-adv-x="1415" d="" />
<glyph glyph-name="x" unicode="x" horiz-adv-x="1010" d="" />
<glyph glyph-name="y" unicode="y" horiz-adv-x="868" d="" />
<glyph glyph-name="z" unicode="z" horiz-adv-x="727" d="" />
<glyph glyph-name="braceleft" unicode="&#x7b;" horiz-adv-x="1014" d="M240 698 Q412 703 463 769 Q514 835 514 902 L514 1370 Q514 1444 591 1511.5 Q668 1579 776 1579 L884 1579 L884 1529 L794 1529 Q733 1529 687 1495.5 Q641 1462 640 1404 L640 904 Q640 821 579.5 745.5 Q519 670 437 669 L437 667 Q519 666 580 591 Q641 516 641 433 L640 -67 Q641 -125 687 -158.5 Q733 -192 794 -192 L884 -192 L884 -242 L776 -242 Q668 -242 591.5 -174.5 Q515 -107 514 -33 L514 435 Q514 501 463 567 Q412 633 240 638 L240 698 Z " />
<glyph glyph-name="bar" unicode="&#x7c;" horiz-adv-x="1014" d="M427 1577 L587 1577 L587 -418 L427 -418 L427 1577 Z " />
<glyph glyph-name="braceright" unicode="&#x7d;" horiz-adv-x="1014" d="M774 638 Q602 633 551 567 Q500 501 500 435 L500 -33 Q499 -107 422.5 -174.5 Q346 -242 238 -242 L130 -242 L130 -192 L220 -192 Q281 -192 327 -158.5 Q373 -125 374 -67 L373 433 Q373 516 434 591 Q495 666 578 667 L578 669 Q495 670 434.5 745.5 Q374 821 374 904 L374 1404 Q373 1462 327 1495.5 Q281 1529 220 1529 L130 1529 L130 1579 L238 1579 Q346 1579 423 1511.5 Q500 1444 500 1370 L500 902 Q500 835 551 769 Q602 703 774 698 L774 638 Z " />
<glyph glyph-name="asciitilde" unicode="&#x7e;" horiz-adv-x="1014" d="M923 878 L923 722 Q860 650 801 624.5 Q742 599 685 599 Q625 599 507.5 647.5 Q390 696 331 696 Q280 696 223.5 668 Q167 640 94 556 L94 712 Q158 785 217 811 Q276 837 331 837 Q395 837 512.5 787.5 Q630 738 685 738 Q737 738 793.5 766 Q850 794 923 878 Z " />
<glyph glyph-name="exclamdown" unicode="&#xa1;" horiz-adv-x="672" d="" />
<glyph glyph-name="cent" unicode="&#xa2;" horiz-adv-x="1139" d="" />
<glyph glyph-name="sterling" unicode="&#xa3;" horiz-adv-x="1014" d="M748 1347 Q676 1378 588 1378 L586 1378 Q486 1378 396 1277 Q312 1184 312 1036 Q312 1021 313 1006 Q313 871 366 733 L726 733 L726 673 L392 673 Q406 643 423 613 Q458 550 458 475 Q458 314 296 100 L698 100 Q828 100 887 232 L936 231 L833 0 L114 0 L115 50 Q302 288 302 468 Q302 545 268 611 Q251 643 237 673 L76 673 L76 733 L211 733 Q153 876 153 986 Q153 1212 276.5 1333 Q400 1454 583 1454 L587 1454 Q662 1454 772.5 1440 Q883 1426 883 1406 L883 1245 L825 1245 Q820 1306 748 1347 Z " />
<glyph glyph-name="currency" unicode="&#xa4;" horiz-adv-x="1014" d="M350 560 Q391 520 449 503 Q478 495 507 495 Q536 495 565 503 Q623 520 664 560 Q704 601 721 659 Q730 688 730 717 Q730 746 721 775 Q704 833 664 874 Q623 914 564 931 Q535 939 506 939 Q477 939 448 930 Q390 913 350 874 Q311 834 294 776 Q284 746 284 716 Q284 688 293 660 Q309 601 350 560 Z M240 903 L122 1021 L202 1102 L320 984 Q364 1014 419 1030 Q463 1044 508 1044 Q549 1044 591 1032 Q648 1015 693 984 L811 1102 L891 1021 L774 904 Q805 858 822 802 Q834 760 834 717 Q834 675 822 632 Q805 576 774 530 L891 413 L811 332 L693 450 Q648 418 592 402 Q550 390 507 390 Q465 390 422 402 Q365 418 320 450 L202 332 L122 413 L240 530 Q208 576 192 633 Q180 675 180 717 Q180 761 193 804 Q209 859 240 903 Z " />
<glyph glyph-name="yen" unicode="&#xa5;" horiz-adv-x="2048" d="M1448 600 L1184 600 L1176 576 L1176 440 L1448 440 L1448 336 L1176 336 L1176 232 Q1152 40 1376 48 L1376 0 L696 0 L696 48 Q920 40 904 232 L904 336 L632 336 L632 440 L904 440 L904 552 L888 600 L632 600 L632 704 L832 704 L568 1224 Q504 1328 400 1328 L400 1384 L1016 1384 L1016 1328 Q840 1328 856 1264 Q848 1240 1016 904 Q1088 768 1128 704 L1312 1056 Q1312 1064 1320 1080 Q1392 1192 1392 1248 Q1392 1336 1232 1328 L1232 1384 L1648 1384 L1648 1328 Q1552 1320 1520 1256 L1296 832 L1224 704 L1448 704 L1448 600 Z " />
<glyph glyph-name="brokenbar" unicode="&#xa6;" horiz-adv-x="1014" d="M427 371 L587 371 L587 -418 L427 -418 L427 371 Z M427 1578 L587 1578 L587 789 L427 789 L427 1578 Z " />
<glyph glyph-name="section" unicode="&#xa7;" horiz-adv-x="1014" d="M545 321 Q601 337 642 374 Q715 439 715 540 Q715 545 714 550 L712 550 Q711 564 708 577 Q686 638 595 704 Q536 733 469 733 Q391 733 344 688.5 Q297 644 297 571 Q297 448 545 321 Z M466 -346 Q579 -340 651 -277 Q723 -213 723 -112 Q723 13 407 164 Q284 228 231.5 301 Q179 374 179 478 Q179 626 268 715 Q335 780 438 797 L398 816 Q275 880 222.5 953 Q170 1026 170 1130 Q170 1278 259 1367 Q341 1446 475 1453 Q483 1454 492 1454 L495 1454 Q561 1454 658 1437.5 Q755 1421 755 1396 L755 1202 L704 1202 Q699 1283 624 1334 Q554 1381 475 1385 L460 1385 Q382 1385 335 1340.5 Q288 1296 288 1223 Q288 1091 575 954 Q724 887 779.5 810.5 Q835 734 835 623 Q835 452 734 341 Q687 302 635 277 Q743 221 789 159 Q844 82 844 -28 Q844 -199 743 -311 Q619 -413 466 -416 L466 -415 Q460 -416 453 -416 L450 -416 Q384 -416 287 -399.5 Q190 -383 190 -358 L190 -164 L241 -164 Q246 -245 321 -296 Q389 -341 466 -346 Z " />
<glyph glyph-name="dieresis" unicode="&#xa8;" horiz-adv-x="1024" d="M223 1289 L294 1361 Q307 1373 319 1373 Q330 1373 346 1359 L415 1286 Q425 1272 425 1261 Q425 1248 413 1234 L344 1159 Q327 1142 319 1142 Q305 1142 294 1154 L218 1240 Q209 1252 209 1263 Q209 1276 223 1289 Z M588 1289 L659 1361 Q672 1373 684 1373 Q695 1373 711 1360 L780 1286 Q790 1272 790 1261 Q790 1248 778 1235 L709 1159 Q692 1142 684 1142 Q670 1142 659 1154 L583 1241 Q574 1252 574 1263 Q574 1276 588 1289 Z " />
<glyph glyph-name="copyright" unicode="&#xa9;" horiz-adv-x="1674" d="M840 1456 Q985 1456 1120 1399.5 Q1255 1343 1359 1239 Q1461 1138 1517.5 1001 Q1574 864 1574 718 Q1574 571 1517.5 436 Q1461 301 1355 196 Q1250 91 1116 36.5 Q982 -18 833 -18 Q687 -18 555 37.5 Q423 93 317 198 Q211 302 155.5 435.5 Q100 569 100 718 Q100 866 155.5 1001 Q211 1136 315 1239 Q417 1343 553.5 1399.5 Q690 1456 840 1456 Z M357 1197 Q262 1101 211 977.5 Q160 854 160 718 Q160 581 211 459 Q262 337 359 240 Q457 144 578 93 Q699 42 834 42 Q971 42 1093.5 92.5 Q1216 143 1313 238 Q1410 336 1462 459.5 Q1514 583 1514 718 Q1514 852 1462 977.5 Q1410 1103 1317 1197 Q1221 1293 1097 1344.5 Q973 1396 839 1396 Q702 1396 577 1344.5 Q452 1293 357 1197 Z M865 223 Q723 223 601 291 Q479 359 415 476 Q351 593 351 719 Q351 845 416.5 963 Q482 1081 604 1147.5 Q726 1214 858 1214 Q896 1214 933 1207.5 Q970 1201 1009 1187 Q1014 1186 1018 1186 Q1037 1186 1044 1216 L1086 1216 L1158 1018 L1114 1018 Q1062 1112 983 1142 Q911 1168 836 1168 L821 1168 Q735 1160 654.5 1097 Q574 1034 533 920 Q500 830 500 736 Q500 711 502 686 Q513 565 571.5 462 Q630 359 721 310 Q793 270 887 268 Q1011 268 1081 324 Q1151 380 1151 450 L1204 450 L1204 350 Q1204 304 1107.5 263.5 Q1011 223 865 223 Z " />
<glyph glyph-name="ordfeminine" unicode="&#xaa;" horiz-adv-x="648" d="" />
<glyph glyph-name="guillemotleft" unicode="&#xab;" horiz-adv-x="944" d="M174 479 L516 782 L530 782 L530 745 L325 479 L530 213 L530 176 L516 176 L174 479 Z M487 479 L829 782 L843 782 L843 745 L638 479 L843 213 L843 176 L829 176 L487 479 Z " />
<glyph glyph-name="logicalnot" unicode="&#xac;" horiz-adv-x="1014" d="M87 767 L927 767 L927 276 L926 275 L828 275 L828 667 L87 667 L87 767 Z " />
<glyph glyph-name="registered" unicode="&#xae;" horiz-adv-x="1674" d="M751 1099 L751 725 L754 717 Q777 661 810 636 Q839 614 866 614 L872 614 Q903 618 933.5 652.5 Q964 687 980 750 Q993 800 993 853 Q993 866 992 880 Q988 947 964 1004.5 Q940 1062 907.5 1080.5 Q875 1099 844 1099 L751 1099 Z M984 576 L1066 460 Q1166 319 1216 319 L1250 319 L1250 269 L904 269 L904 319 L949 319 Q979 319 979 341 Q979 370 910 455 L835 557 Q793 557 751 599 L751 440 Q751 319 787 319 L840 319 L840 269 L524 269 L524 319 L567 319 Q604 319 604 440 L604 978 Q604 1099 567 1099 L524 1099 L524 1169 L880 1169 Q944 1168 1005 1127 Q1065 1086 1097.5 1013 Q1130 940 1130 861 Q1130 783 1098 710.5 Q1066 638 984 576 Z M840 1456 Q985 1456 1120 1399.5 Q1255 1343 1359 1239 Q1461 1138 1517.5 1001 Q1574 864 1574 718 Q1574 571 1517.5 436 Q1461 301 1355 196 Q1250 91 1116 36.5 Q982 -18 833 -18 Q687 -18 555 37.5 Q423 93 317 198 Q211 302 155.5 435.5 Q100 569 100 718 Q100 866 155.5 1001 Q211 1136 315 1239 Q417 1343 553.5 1399.5 Q690 1456 840 1456 Z M357 1197 Q262 1101 211 977.5 Q160 854 160 718 Q160 581 211 459 Q262 337 359 240 Q457 144 578 93 Q699 42 834 42 Q971 42 1093.5 92.5 Q1216 143 1313 238 Q1410 336 1462 459.5 Q1514 583 1514 718 Q1514 852 1462 977.5 Q1410 1103 1317 1197 Q1221 1293 1097 1344.5 Q973 1396 839 1396 Q702 1396 577 1344.5 Q452 1293 357 1197 Z " />
<glyph glyph-name="overscore" unicode="&#xaf;" horiz-adv-x="670" d="" />
<glyph glyph-name="degree" unicode="&#xb0;" horiz-adv-x="674" d="M339 1372 Q253 1372 191.5 1311 Q130 1250 130 1163 Q130 1076 191 1016 Q252 956 339 956 Q426 956 486 1016 Q546 1076 546 1163 Q546 1250 485.5 1311 Q425 1372 339 1372 Z M339 1442 Q454 1442 535 1360.5 Q616 1279 616 1164 Q616 1050 534 968 Q452 886 337 886 Q220 886 140 967 Q60 1048 60 1164 Q60 1280 141.5 1361 Q223 1442 339 1442 Z " />
<glyph glyph-name="plusminus" unicode="&#xb1;" horiz-adv-x="1014" d="" />
<glyph glyph-name="uni00B2" unicode="&#xb2;" horiz-adv-x="1014" d="" />
<glyph glyph-name="uni00B3" unicode="&#xb3;" horiz-adv-x="1014" d="" />
<glyph glyph-name="acute" unicode="&#xb4;" horiz-adv-x="1024" d="M607 1375 Q642 1410 662.5 1422 Q683 1434 703 1434 Q736 1434 756.5 1414 Q777 1394 777 1363 Q777 1341 761.5 1321 Q746 1301 715 1281 L385 1078 L316 1078 L607 1375 Z " />
<glyph glyph-name="mu" unicode="&#xb5;" horiz-adv-x="1180" d="" />
<glyph glyph-name="paragraph" unicode="&#xb6;" horiz-adv-x="1024" d="M929 1435 L929 1365 L802 1365 L802 0 L720 0 L720 1365 L554 1365 L554 0 L470 0 L470 738 Q296 746 194.5 840.5 Q93 935 93 1086 Q93 1243 200.5 1339 Q308 1435 486 1435 L929 1435 Z " />
<glyph glyph-name="&amp;#xb7;" unicode="&#xb7;" horiz-adv-x="508" d="M145 740 L227 824 Q242 838 256 838 Q269 838 287 822 L367 736 Q379 720 379 707 Q379 692 365 676 L285 588 Q265 568 256 568 Q240 568 227 582 L139 683 Q129 696 129 709 Q129 724 145 740 Z " />
<glyph glyph-name="&amp;#x2219;" unicode="&#x2219;" horiz-adv-x="508" d="M145 740 L227 824 Q242 838 256 838 Q269 838 287 822 L367 736 Q379 720 379 707 Q379 692 365 676 L285 588 Q265 568 256 568 Q240 568 227 582 L139 683 Q129 696 129 709 Q129 724 145 740 Z " />
<glyph glyph-name="cedilla" unicode="&#xb8;" horiz-adv-x="1024" d="M360 -290 Q445 -342 512 -342 Q578 -342 606.5 -320.5 Q635 -299 635 -254 Q635 -209 586 -190 Q546 -174 484 -174 Q468 -174 450 -176 L498 0 L561 0 L524 -104 Q556 -100 586 -99 Q672 -99 720 -139.5 Q768 -180 768 -253 Q768 -329 709.5 -373.5 Q651 -418 549 -418 Q440 -418 360 -386 L360 -290 Z " />
<glyph glyph-name="uni00B9" unicode="&#xb9;" horiz-adv-x="1014" d="" />
<glyph glyph-name="ordmasculine" unicode="&#xba;" horiz-adv-x="718" d="" />
<glyph glyph-name="guillemotright" unicode="&#xbb;" horiz-adv-x="944" d="M115 176 L101 176 L101 213 L306 479 L101 745 L101 782 L115 782 L457 479 L115 176 Z M428 176 L414 176 L414 213 L619 479 L414 745 L414 782 L428 782 L770 479 L428 176 Z " />
<glyph glyph-name="onequarter" unicode="&#xbc;" horiz-adv-x="1708" d="" />
<glyph glyph-name="onehalf" unicode="&#xbd;" horiz-adv-x="1964" d="" />
<glyph glyph-name="threequarters" unicode="&#xbe;" horiz-adv-x="1708" d="" />
<glyph glyph-name="questiondown" unicode="&#xbf;" horiz-adv-x="748" d="" />
<glyph glyph-name="Agrave" unicode="&#xc0;" horiz-adv-x="1540" d="" />
<glyph glyph-name="Aacute" unicode="&#xc1;" horiz-adv-x="1540" d="" />
<glyph glyph-name="Acircumflex" unicode="&#xc2;" horiz-adv-x="1540" d="" />
<glyph glyph-name="Atilde" unicode="&#xc3;" horiz-adv-x="1540" d="" />
<glyph glyph-name="Adieresis" unicode="&#xc4;" horiz-adv-x="1540" d="" />
<glyph glyph-name="Aring" unicode="&#xc5;" horiz-adv-x="1540" d="" />
<glyph glyph-name="AE" unicode="&#xc6;" horiz-adv-x="2118" d="" />
<glyph glyph-name="Ccedilla" unicode="&#xc7;" horiz-adv-x="1399" d="" />
<glyph glyph-name="Egrave" unicode="&#xc8;" horiz-adv-x="1151" d="" />
<glyph glyph-name="Eacute" unicode="&#xc9;" horiz-adv-x="1151" d="" />
<glyph glyph-name="Ecircumflex" unicode="&#xca;" horiz-adv-x="1151" d="" />
<glyph glyph-name="Edieresis" unicode="&#xcb;" horiz-adv-x="1151" d="" />
<glyph glyph-name="Igrave" unicode="&#xcc;" horiz-adv-x="657" d="" />
<glyph glyph-name="Iacute" unicode="&#xcd;" horiz-adv-x="657" d="" />
<glyph glyph-name="Icircumflex" unicode="&#xce;" horiz-adv-x="657" d="" />
<glyph glyph-name="Idieresis" unicode="&#xcf;" horiz-adv-x="657" d="" />
<glyph glyph-name="Eth" unicode="&#xd0;" horiz-adv-x="1518" d="" />
<glyph glyph-name="Ntilde" unicode="&#xd1;" horiz-adv-x="1554" d="" />
<glyph glyph-name="Ograve" unicode="&#xd2;" horiz-adv-x="1614" d="" />
<glyph glyph-name="Oacute" unicode="&#xd3;" horiz-adv-x="1614" d="" />
<glyph glyph-name="Ocircumflex" unicode="&#xd4;" horiz-adv-x="1614" d="" />
<glyph glyph-name="Otilde" unicode="&#xd5;" horiz-adv-x="1614" d="" />
<glyph glyph-name="Odieresis" unicode="&#xd6;" horiz-adv-x="1614" d="" />
<glyph glyph-name="multiply" unicode="&#xd7;" horiz-adv-x="1014" d="M507 618 L260 371 L161 470 L408 717 L161 965 L260 1063 L507 816 L755 1063 L853 964 L606 717 L853 470 L754 371 L507 618 Z " />
<glyph glyph-name="Oslash" unicode="&#xd8;" horiz-adv-x="1614" d="" />
<glyph glyph-name="Ugrave" unicode="&#xd9;" horiz-adv-x="1501" d="" />
<glyph glyph-name="Uacute" unicode="&#xda;" horiz-adv-x="1501" d="" />
<glyph glyph-name="Ucircumflex" unicode="&#xdb;" horiz-adv-x="1501" d="" />
<glyph glyph-name="Udieresis" unicode="&#xdc;" horiz-adv-x="1501" d="" />
<glyph glyph-name="Yacute" unicode="&#xdd;" horiz-adv-x="1233" d="" />
<glyph glyph-name="Thorn" unicode="&#xde;" horiz-adv-x="1120" d="" />
<glyph glyph-name="germandbls" unicode="&#xdf;" horiz-adv-x="1251" d="" />
<glyph glyph-name="agrave" unicode="&#xe0;" horiz-adv-x="922" d="" />
<glyph glyph-name="aacute" unicode="&#xe1;" horiz-adv-x="922" d="" />
<glyph glyph-name="acircumflex" unicode="&#xe2;" horiz-adv-x="922" d="" />
<glyph glyph-name="atilde" unicode="&#xe3;" horiz-adv-x="922" d="" />
<glyph glyph-name="adieresis" unicode="&#xe4;" horiz-adv-x="922" d="" />
<glyph glyph-name="aring" unicode="&#xe5;" horiz-adv-x="922" d="" />
<glyph glyph-name="ae" unicode="&#xe6;" horiz-adv-x="1454" d="" />
<glyph glyph-name="ccedilla" unicode="&#xe7;" horiz-adv-x="905" d="" />
<glyph glyph-name="egrave" unicode="&#xe8;" horiz-adv-x="909" d="" />
<glyph glyph-name="eacute" unicode="&#xe9;" horiz-adv-x="909" d="" />
<glyph glyph-name="ecircumflex" unicode="&#xea;" horiz-adv-x="909" d="" />
<glyph glyph-name="edieresis" unicode="&#xeb;" horiz-adv-x="909" d="" />
<glyph glyph-name="igrave" unicode="&#xec;" horiz-adv-x="514" d="" />
<glyph glyph-name="iacute" unicode="&#xed;" horiz-adv-x="514" d="" />
<glyph glyph-name="icircumflex" unicode="&#xee;" horiz-adv-x="514" d="" />
<glyph glyph-name="idieresis" unicode="&#xef;" horiz-adv-x="514" d="" />
<glyph glyph-name="eth" unicode="&#xf0;" horiz-adv-x="1139" d="" />
<glyph glyph-name="ntilde" unicode="&#xf1;" horiz-adv-x="1108" d="" />
<glyph glyph-name="ograve" unicode="&#xf2;" horiz-adv-x="1010" d="" />
<glyph glyph-name="oacute" unicode="&#xf3;" horiz-adv-x="1010" d="" />
<glyph glyph-name="ocircumflex" unicode="&#xf4;" horiz-adv-x="1010" d="" />
<glyph glyph-name="otilde" unicode="&#xf5;" horiz-adv-x="1010" d="" />
<glyph glyph-name="odieresis" unicode="&#xf6;" horiz-adv-x="1010" d="" />
<glyph glyph-name="divide" unicode="&#xf7;" horiz-adv-x="1014" d="M87 647 L87 787 L926 787 L927 786 L927 647 L87 647 Z M398 408 L480 492 Q495 506 509 506 Q522 506 540 490 L620 404 Q632 388 632 375 Q632 360 618 344 L538 256 Q518 236 509 236 Q493 236 480 250 L392 351 Q382 364 382 377 Q382 392 398 408 Z M398 1101 L480 1185 Q495 1199 509 1199 Q522 1199 540 1183 L620 1097 Q632 1081 632 1068 Q632 1053 618 1037 L538 949 Q518 929 509 929 Q493 929 480 943 L392 1044 Q382 1057 382 1070 Q382 1085 398 1101 Z " />
<glyph glyph-name="oslash" unicode="&#xf8;" horiz-adv-x="1010" d="" />
<glyph glyph-name="ugrave" unicode="&#xf9;" horiz-adv-x="1059" d="" />
<glyph glyph-name="uacute" unicode="&#xfa;" horiz-adv-x="1059" d="" />
<glyph glyph-name="ucircumflex" unicode="&#xfb;" horiz-adv-x="1059" d="" />
<glyph glyph-name="udieresis" unicode="&#xfc;" horiz-adv-x="1059" d="" />
<glyph glyph-name="yacute" unicode="&#xfd;" horiz-adv-x="868" d="" />
<glyph glyph-name="thorn" unicode="&#xfe;" horiz-adv-x="1010" d="" />
<glyph glyph-name="ydieresis" unicode="&#xff;" horiz-adv-x="868" d="" />
<glyph glyph-name="dotlessi" unicode="&#x131;" horiz-adv-x="514" d="M328 223 Q328 50 428 50 L474 50 L474 0 L32 0 L32 50 L78 50 Q178 50 178 223 L178 655 Q178 732 67 732 L19 732 L19 776 Q241 845 280 958 L328 958 L328 223 Z " />
<glyph glyph-name="circumflex" unicode="&#x2c6;" horiz-adv-x="1024" d="M221 1079 L453 1434 L571 1434 L803 1079 L745 1079 L512 1295 L279 1079 L221 1079 Z " />
<glyph glyph-name="caron" unicode="&#x2c7;" horiz-adv-x="1024" d="M221 1434 L279 1434 L512 1220 L745 1434 L803 1434 L571 1078 L453 1078 L221 1434 Z " />
<glyph glyph-name="uni02C9" unicode="&#x2c9;" horiz-adv-x="1024" d="M254 1195 L254 1320 L770 1320 L770 1195 L254 1195 Z " />
<glyph glyph-name="breve" unicode="&#x2d8;" horiz-adv-x="1024" d="M219 1349 L270 1349 Q287 1276 345 1242 Q403 1208 512 1208 Q621 1208 678 1241.5 Q735 1275 752 1349 L803 1349 Q783 1216 709 1147.5 Q635 1079 512 1079 Q390 1079 315 1148 Q240 1217 219 1349 Z " />
<glyph glyph-name="dotaccent" unicode="&#x2d9;" horiz-adv-x="1024" d="M422 1289 L491 1361 Q497 1367 504 1370 Q511 1373 518 1373 Q524 1373 530.5 1370 Q537 1367 543 1361 L614 1285 Q619 1281 621 1275 Q623 1269 623 1261 Q622 1252 620 1246 Q618 1240 612 1234 L541 1158 Q529 1147 525 1144.5 Q521 1142 518 1142 Q508 1142 501.5 1144.5 Q495 1147 491 1153 L416 1240 Q412 1244 410 1249.5 Q408 1255 408 1263 Q408 1269 411 1275.5 Q414 1282 422 1289 Z " />
<glyph glyph-name="ring" unicode="&#x2da;" horiz-adv-x="1024" d="M411 1257 Q411 1215 440 1186 Q469 1157 511 1157 Q553 1157 582 1186 Q611 1215 611 1257 Q611 1297 581.5 1326.5 Q552 1356 511 1356 Q470 1356 440.5 1326.5 Q411 1297 411 1257 Z M335 1257 Q335 1332 386 1383 Q437 1434 511 1434 Q587 1434 638.5 1382.5 Q690 1331 690 1257 Q690 1182 638.5 1130.5 Q587 1079 511 1079 Q437 1079 386 1130.5 Q335 1182 335 1257 Z " />
<glyph glyph-name="ogonek" unicode="&#x2db;" horiz-adv-x="1024" d="M640 0 Q569 -62 529.5 -119.5 Q490 -177 490 -232 Q490 -279 517 -307 Q544 -335 590 -335 Q630 -335 659.5 -319.5 Q689 -304 709 -271 L737 -287 Q701 -350 646.5 -384 Q592 -418 527 -418 Q457 -418 413 -382.5 Q369 -347 369 -292 Q369 -216 429.5 -135.5 Q490 -55 591 0 L640 0 Z " />
<glyph glyph-name="tilde" unicode="&#x2dc;" horiz-adv-x="1024" d="M808 1382 Q788 1279 739.5 1228 Q691 1177 613 1177 L609 1177 Q559 1177 496 1200 Q430 1224 382 1224 Q343 1224 321.5 1203.5 Q300 1183 288 1132 L234 1132 Q253 1238 302 1290.5 Q351 1343 431 1343 Q477 1342 544 1319 Q608 1296 656 1296 L660 1296 Q696 1296 718 1316 Q740 1336 754 1382 L808 1382 Z " />
<glyph glyph-name="hungarumlaut" unicode="&#x2dd;" horiz-adv-x="1024" d="M217 1079 L361 1352 Q385 1396 406.5 1415 Q428 1434 453 1434 Q481 1434 501 1414 Q521 1394 521 1367 Q521 1351 510.5 1332 Q500 1313 480 1291 L275 1079 L217 1079 Z M502 1079 L646 1352 Q670 1396 691.5 1415 Q713 1434 738 1434 Q766 1434 786 1414 Q806 1394 806 1367 Q806 1351 795.5 1332 Q785 1313 765 1291 L560 1079 L502 1079 Z " />
<glyph glyph-name="uni1F40" unicode="&#x1f40;" horiz-adv-x="819" d="M2650 1559 Q2850 1559 3028 1415 Q3195 1258 3195 1056 L3195 1021 Q3195 915 3147 777 Q3127 750 3086 750 Q3025 750 3001 797 Q2997 816 2997 825 L2997 829 Q2997 856 3022 944 Q3028 967 3028 1014 Q3028 1103 2978 1200 Q2905 1319 2732 1375 Q2659 1394 2606 1394 Q2597 1394 2496 1371 Q2440 1371 2417 1432 Q2412 1441 2412 1461 Q2412 1520 2494 1544 Q2577 1559 2650 1559 Z M1928 1311 Q2043 1311 2085 1217 Q2104 1171 2104 1108 Q2089 1041 2089 1017 L2089 1014 Q2092 996 2108 996 L2122 996 Q2146 996 2270 1044 Q2368 1071 2439 1071 Q2577 1071 2623 960 Q2631 929 2631 906 Q2631 844 2592 775 L2590 764 Q2590 737 2682 718 Q2886 629 2886 451 Q2886 294 2734 132 Q2569 -25 2302 -100 Q2117 -146 1974 -146 L1943 -146 Q1702 -146 1434 -50 Q1307 2 1213 90 Q1122 187 1104 245 Q1063 345 1063 416 L1063 420 Q1063 734 1490 1110 Q1590 1192 1670 1236 Q1824 1311 1928 1311 Z M2613 1250 Q2786 1250 2850 1117 Q2873 1059 2873 1000 L2873 985 Q2873 898 2855 889 Q2837 871 2811 871 Q2771 871 2755 921 L2755 923 L2761 983 Q2761 1113 2654 1135 L2621 1138 Q2601 1138 2550 1129 Q2498 1141 2498 1181 Q2496 1181 2496 1188 Q2496 1238 2558 1246 Q2595 1250 2613 1250 Z M1267 361 Q1267 198 1446 78 Q1623 -29 1841 -29 L1857 -29 Q2160 -29 2381 153 Q2529 289 2529 432 L2529 451 Q2529 613 2325 724 Q2150 802 1962 802 Q1622 802 1401 624 Q1267 506 1267 361 Z M1880 649 L1899 649 Q2073 649 2156 495 Q2183 434 2183 382 L2183 353 Q2183 184 1966 88 Q1899 63 1818 63 Q1700 63 1584 136 Q1515 192 1515 307 Q1515 478 1643 581 Q1745 649 1880 649 Z M1880 386 Q1885 351 1914 351 L1920 351 Q1970 362 1970 409 Q1970 443 1928 445 Q1880 431 1880 397 L1880 386 Z M1622 268 Q1622 213 1686 190 Q1699 184 1730 184 Q1797 184 1845 251 Q1857 271 1857 297 L1857 301 Q1857 358 1791 382 Q1775 389 1745 389 Q1660 389 1626 295 Q1622 285 1622 268 Z " />
<glyph glyph-name="uni1F41" unicode="&#x1f41;" horiz-adv-x="819" d="M1513 1607 L1541 1607 Q1801 1607 1969 1385 Q2047 1278 2078 1097 Q2078 1051 2096 980 Q2096 954 2114 921 Q2132 877 2132 827 L2132 800 Q2208 774 2299 585 Q2366 423 2366 322 Q2366 247 2330 224 Q2314 221 2309 219 Q2257 226 2182 330 Q2164 241 2084 145 Q2082 145 2035 96 Q2164 44 2164 -31 L2164 -45 Q2164 -98 2073 -152 Q1977 -200 1852 -200 Q1659 -200 1561 -95 Q1547 -70 1547 -63 L1511 -63 Q1494 -94 1479 -111 Q1378 -200 1198 -200 Q1031 -200 928 -115 Q890 -78 890 -33 Q890 44 1019 96 L1019 98 Q908 193 872 330 Q791 219 744 219 Q699 219 690 298 L690 328 Q690 479 811 689 Q879 788 922 800 L922 820 Q922 899 958 956 Q958 958 956 958 Q956 982 972 1036 Q972 1187 1067 1357 Q1162 1513 1343 1579 Q1429 1607 1513 1607 Z " />
<glyph glyph-name="uni1F42" unicode="&#x1f42;" horiz-adv-x="819" d="M1244 1485 L1262 1485 Q1549 1485 1783 1295 Q1885 1201 1919 1133 Q1979 1014 1979 978 Q1936 980 1915 980 Q1913 980 1909 982 L1897 980 L1891 980 Q1672 980 1482 822 Q1294 640 1294 412 Q1294 342 1316 258 Q1311 254 1308 254 Q1277 254 1250 252 Q1170 252 994 288 Q749 165 743 165 Q743 167 815 380 Q525 588 525 862 L525 876 Q525 1134 763 1327 Q977 1485 1244 1485 Z M905 1085 Q905 1023 994 998 L1026 998 Q1104 1014 1104 1085 Q1095 1177 1014 1177 Q905 1163 905 1085 Z M1412 1085 Q1412 1020 1506 998 L1528 998 Q1593 998 1610 1073 L1610 1095 Q1610 1166 1522 1177 Q1445 1177 1414 1107 Q1412 1090 1412 1085 Z M1941 942 L1971 942 Q2202 942 2403 774 Q2571 612 2571 420 L2571 408 Q2571 199 2319 1 L2317 1 L2371 -179 L2369 -179 L2171 -73 Q2035 -109 1953 -109 Q1672 -109 1474 87 Q1340 237 1340 410 L1340 424 Q1340 651 1556 818 Q1735 942 1941 942 Z M1684 580 Q1684 530 1748 508 L1762 508 Q1825 508 1845 572 L1845 584 Q1845 632 1773 650 L1756 652 Q1710 652 1686 594 L1684 580 Z M2083 574 Q2101 508 2155 508 L2157 508 Q2229 508 2245 578 Q2245 625 2187 646 Q2178 650 2155 652 Q2105 652 2083 590 L2083 574 Z " />
<glyph glyph-name="uni1F43" unicode="&#x1f43;" horiz-adv-x="819" d="M400 1269 L1788 1269 Q1838 1269 1892 1242 L1892 1238 Q1106 548 1095 541 L1093 541 Q1079 550 295 1238 L295 1242 Q349 1269 400 1269 Z M209 1160 Q231 1142 783 658 Q737 604 203 8 Q172 55 172 115 L172 1037 Q172 1110 209 1160 Z M1978 1160 Q2015 1110 2015 1037 L2015 115 Q2015 55 1985 8 Q1445 609 1404 658 L1978 1160 Z M869 580 L871 580 L1064 414 Q1077 406 1095 406 Q1124 406 1181 463 Q1299 567 1316 580 L1318 580 Q1833 5 1905 -76 L1905 -80 Q1847 -113 1790 -113 L398 -113 Q341 -113 283 -80 L283 -76 Q661 349 869 580 Z " />
<glyph glyph-name="uni1F44" unicode="&#x1f44;" horiz-adv-x="819" d="M525 1272 L1371 1272 Q1569 1272 1641 1099 Q1657 1055 1657 1020 L1657 495 Q1657 390 1555 298 Q1481 243 1385 243 L768 243 Q643 129 563 97 Q455 45 368 45 L358 45 Q303 45 293 69 Q293 75 356 131 Q431 213 437 257 Q330 294 282 378 Q246 439 246 505 L246 1018 Q246 1118 325 1199 Q398 1272 525 1272 Z M1784 1006 Q1849 999 1909 958 Q2015 881 2015 724 L2015 269 Q2015 69 1834 -7 Q1822 -12 1817 -12 Q1823 -56 1907 -144 L1964 -196 L1964 -198 Q1964 -222 1893 -222 L1886 -222 Q1716 -222 1524 -60 L1488 -26 L856 -26 Q773 -26 701 33 Q751 62 820 124 L1381 124 Q1635 124 1748 352 Q1781 421 1781 529 L1781 1003 Q1782 1006 1784 1006 Z M582 746 Q582 692 644 665 Q653 664 659 664 L670 664 Q723 664 747 738 L749 746 Q727 829 670 829 L659 829 Q613 829 585 770 Q582 757 582 746 Z M868 748 Q868 693 930 665 Q939 664 945 664 L958 664 Q1010 664 1035 739 L1035 744 Q1035 803 971 827 Q965 829 958 829 L945 829 Q896 829 870 758 Q868 749 868 748 Z M1159 748 Q1159 691 1223 665 Q1230 664 1237 664 L1249 664 Q1299 664 1324 734 L1326 744 Q1306 829 1249 829 L1237 829 Q1187 829 1161 758 L1159 748 Z " />
<glyph glyph-name="uni1F45" unicode="&#x1f45;" horiz-adv-x="819" d="M851 1442 Q938 1442 969 1351 Q973 1338 973 1329 L973 1313 Q973 1251 907 1211 Q883 1199 860 1199 L860 1197 Q934 1197 1075 1134 Q1137 1105 1209 1032 Q1340 887 1340 678 L1340 420 Q1340 228 1451 46 Q1458 19 1574 -135 Q1577 -135 1583 -146 L1580 -148 L123 -148 Q119 -148 119 -144 Q306 86 350 284 Q362 342 362 420 L362 678 Q362 905 518 1059 Q627 1152 772 1186 Q826 1197 842 1197 L842 1199 Q776 1199 737 1276 Q729 1298 729 1313 L729 1329 Q729 1385 790 1426 Q818 1442 851 1442 Z M733 -269 L969 -269 Q973 -270 973 -273 L973 -276 Q973 -340 905 -378 Q882 -391 851 -391 Q762 -391 731 -294 Q729 -285 729 -276 L729 -273 Q730 -269 733 -269 Z " />
<glyph glyph-name="uni1F46" unicode="&#x1f46;" d="M-1014 925 L615 925 Q636 922 636 904 Q619 898 -194 0 L-205 0 L-1035 914 L-1014 925 Z " />
<glyph glyph-name="uni1F47" unicode="&#x1f47;" d="M3 1352 L1399 1352 Q1402 1351 1402 1349 L1402 -173 Q1402 -176 1399 -176 L13 -176 Q10 -176 10 -173 L10 196 Q10 200 13 200 L106 200 Q110 199 110 196 L110 -76 L1302 -76 L1302 1252 L100 1252 L100 980 Q100 976 97 976 L3 976 Q0 976 0 980 L0 1349 Q1 1352 3 1352 Z M542 897 Q1066 621 1080 612 L1080 611 Q1048 595 543 327 Q540 327 540 330 L540 469 L3 469 Q0 469 0 472 L0 752 Q1 756 3 756 L540 756 L540 894 L542 897 Z " />
<glyph glyph-name="uni1F48" unicode="&#x1f48;" horiz-adv-x="819" d="M771 1418 L774 1418 Q960 1418 1079 1249 Q1133 1158 1133 1055 Q1133 884 986 767 Q886 696 773 696 Q594 696 473 855 Q412 952 412 1059 Q412 1240 574 1358 Q666 1418 771 1418 Z M774 637 Q1015 637 1214 475 Q1320 376 1346 323 Q1391 260 1427 153 Q1457 64 1457 -115 L1457 -155 Q1457 -159 1454 -159 L92 -159 Q88 -159 88 -155 L88 -115 Q88 91 130 186 Q223 430 444 552 Q600 637 774 637 Z " />
<glyph glyph-name="uni1F49" unicode="&#x1f49;" horiz-adv-x="819" d="M991 1437 L999 1437 Q1094 1437 1247 1313 Q1357 1225 1357 1072 Q1357 883 1242 545 Q1166 349 1070 196 Q998 82 861 -74 Q704 -236 671 -249 Q577 -330 488 -330 Q341 -330 166 -172 Q116 -115 116 -81 L116 -69 Q116 61 372 284 Q400 302 413 302 L420 302 Q476 302 592 144 Q617 112 666 112 Q720 112 786 195 Q846 260 907 365 Q960 456 997 542 Q1068 739 1068 776 Q1068 854 966 886 Q825 913 786 939 Q757 968 757 1000 L757 1006 Q767 1103 871 1335 Q921 1433 965 1433 Q965 1436 991 1437 Z " />
<glyph glyph-name="uni1F4A" unicode="&#x1f4a;" horiz-adv-x="819" d="M477 1287 Q659 1169 750 955 Q799 821 799 719 Q798 719 798 717 L790 719 Q734 719 680 689 L679 689 L234 1135 L234 1136 Q385 1254 477 1287 Z M1126 1287 Q1217 1254 1367 1136 L1367 1135 L909 674 L907 674 Q868 707 803 719 L804 722 L804 724 Q804 898 923 1089 Q955 1140 1044 1225 Q1092 1267 1126 1287 Z M198 1098 L200 1098 Q423 877 642 655 L642 654 Q595 597 595 532 L595 528 Q595 459 639 405 L639 403 Q386 148 188 -48 L185 -48 Q69 107 36 197 Q72 248 125 306 Q216 392 292 432 Q434 505 571 516 Q584 516 592 517 L592 519 Q437 519 250 622 Q182 660 88 747 Q35 801 25 817 Q57 901 114 987 Q169 1065 198 1098 Z M1402 1098 L1404 1098 Q1537 934 1572 830 Q1577 822 1577 814 Q1492 720 1440 682 Q1272 557 1106 530 Q1055 519 1006 519 L1006 517 Q1191 517 1385 390 Q1427 364 1510 279 Q1544 239 1572 197 L1572 195 Q1535 94 1421 -48 Q1188 184 947 427 Q976 476 976 532 Q976 582 942 638 L942 640 Q1346 1042 1402 1098 Z M785 657 Q874 657 910 560 Q914 544 914 532 L914 524 Q914 440 820 403 L785 398 Q704 398 663 486 Q657 510 657 530 Q657 611 744 651 Q769 657 785 657 Z M903 378 L906 378 L1379 -94 Q1205 -219 1095 -257 Q1011 -182 972 -133 Q857 11 814 184 Q803 244 803 256 L801 256 Q801 219 763 98 Q729 8 668 -84 Q627 -141 553 -216 L509 -255 L506 -255 Q404 -223 225 -94 Q681 365 685 365 Q737 336 785 336 Q847 336 903 378 Z " />
<glyph glyph-name="uni1F4B" unicode="&#x1f4b;" horiz-adv-x="819" d="M452 1362 L993 1362 Q1035 1357 1035 1328 L1035 1325 Q1035 1302 921 1092 L523 1092 Q409 1302 409 1325 L409 1328 Q409 1357 452 1362 Z M321 958 L1123 958 Q1298 838 1374 588 Q1397 493 1397 420 Q1397 89 1112 -129 Q936 -254 719 -254 Q391 -254 173 31 Q48 214 48 417 Q48 741 321 958 Z M685 839 L685 750 Q685 746 606 728 Q480 665 480 545 Q480 391 680 329 L685 321 L685 147 Q685 141 677 141 Q546 163 495 207 L495 67 Q591 22 682 22 L685 16 L685 -83 L756 -83 L756 19 Q759 25 836 42 Q964 92 964 221 Q964 367 759 437 L756 443 L756 622 Q756 628 765 628 Q817 628 916 580 L916 710 Q848 747 759 747 L756 753 L756 839 L685 839 Z M682 628 L685 622 L685 469 Q614 499 614 548 L614 554 Q614 605 668 625 Q678 625 682 628 Z M762 295 Q830 263 830 218 L830 215 Q822 144 762 144 Q756 144 756 150 L756 289 Q757 295 762 295 Z " />
<glyph glyph-name="uni1F4C" unicode="&#x1f4c;" horiz-adv-x="819" d="M906 1425 L948 1425 Q1058 1425 1176 1331 Q1301 1211 1301 1045 Q1301 884 1158 758 Q1378 669 1488 450 Q1550 336 1550 122 L1550 76 Q1550 11 1507 -3 Q1489 -7 1461 -7 L386 -7 Q321 -7 307 37 Q303 53 303 76 L303 116 Q303 311 347 409 Q372 482 457 589 Q544 680 609 716 Q671 750 696 758 Q553 883 553 1047 Q553 1268 761 1388 Q847 1425 906 1425 Z M553 1302 L567 1298 Q486 1166 486 1034 Q486 882 592 764 Q370 659 283 427 Q243 312 243 182 L239 180 L133 180 Q76 180 60 220 Q56 228 56 242 L56 348 Q56 579 258 741 Q292 765 322 781 Q243 879 243 976 L243 982 Q243 987 241 991 Q243 994 243 999 L243 1007 Q243 1121 349 1225 Q445 1302 553 1302 Z M1301 1302 Q1460 1302 1563 1157 Q1611 1077 1611 1007 L1611 999 Q1611 994 1613 991 Q1611 987 1611 982 L1611 976 Q1611 879 1532 781 Q1629 735 1715 617 Q1798 488 1798 348 L1798 242 Q1798 195 1746 182 Q1735 180 1721 180 L1615 180 Q1611 180 1611 184 Q1611 535 1336 723 Q1297 747 1261 764 L1261 766 Q1365 879 1365 1024 L1365 1041 Q1365 1171 1286 1298 L1286 1300 L1291 1300 Q1298 1300 1301 1302 Z " />
<glyph glyph-name="uni1F4D" unicode="&#x1f4d;" horiz-adv-x="819" d="M421 1009 L432 1009 L1111 340 Q1111 325 973 202 L421 743 Q404 713 -120 202 Q-135 202 -258 340 L421 1009 Z " />
<glyph glyph-name="uni1F4E" unicode="&#x1f4e;" d="M59 1395 L643 1395 Q685 1395 692 1330 Q692 1321 694 1316 Q692 1177 692 1100 L692 1028 Q692 942 694 786 Q686 714 640 714 Q631 711 613 711 Q494 714 465 714 L245 714 Q195 714 109 713 L106 711 Q104 713 101 713 L95 713 Q34 713 14 744 Q10 757 10 762 L10 1346 Q10 1372 50 1394 L59 1395 Z M851 1395 L1436 1395 Q1464 1395 1484 1352 L1484 763 Q1484 742 1457 721 Q1437 711 1402 711 Q1281 714 1259 714 L1025 714 Q964 714 894 710 Q837 710 820 730 Q802 761 802 792 Q803 929 803 1005 L803 1169 Q803 1254 800 1297 Q800 1372 833 1391 Q846 1395 851 1395 Z M137 1264 L137 842 L563 842 L563 1267 L140 1267 Q137 1266 137 1264 Z M931 1267 L931 842 L1357 842 L1357 1267 L931 1267 Z M1147 1142 Q1204 1142 1226 1081 Q1229 1062 1229 1054 Q1229 990 1164 969 Q1159 967 1153 967 L1136 967 Q1079 967 1061 1034 Q1058 1042 1058 1057 Q1058 1105 1103 1132 Q1114 1139 1147 1142 Z M343 1140 L357 1140 Q407 1140 432 1088 Q439 1074 439 1052 Q439 992 368 967 Q350 966 348 966 Q298 966 272 1018 Q265 1036 265 1048 L265 1057 Q265 1116 321 1136 Q333 1140 343 1140 Z M99 605 Q175 602 203 602 L498 602 Q594 605 604 605 Q669 605 682 575 Q695 542 695 498 Q692 449 692 334 L692 229 Q692 146 694 -8 Q684 -66 672 -66 Q661 -79 642 -79 L59 -79 Q30 -79 10 -34 L10 554 Q10 571 40 596 Q65 605 99 605 Z M900 602 L1222 602 Q1225 601 1225 599 L1225 341 L1357 341 Q1357 390 1356 510 Q1356 530 1359 600 L1362 602 L1405 602 Q1460 602 1478 575 Q1484 565 1484 557 L1484 209 Q1484 206 1481 206 L1064 206 Q1061 206 1061 209 L1061 301 Q1044 304 1005 304 L974 304 Q968 304 963 302 Q957 304 951 304 L931 304 Q931 296 930 294 Q928 186 928 134 L928 -76 Q928 -79 925 -79 L851 -79 Q816 -79 803 -19 L800 20 Q803 70 803 143 L803 383 Q800 507 800 521 L800 523 Q800 599 858 599 Q872 602 900 602 Z M137 471 L137 48 L563 48 L563 474 L140 474 Q137 473 137 471 Z M351 347 L355 347 Q413 347 438 279 L439 259 Q439 200 377 177 Q372 177 355 174 Q288 174 265 236 Q262 247 262 258 Q262 322 321 343 Q336 347 351 347 Z M1065 74 L1202 74 Q1205 73 1205 71 L1205 -76 Q1205 -79 1202 -79 L1064 -79 Q1061 -79 1061 -76 L1061 19 Q1061 36 1062 72 L1065 74 Z M1341 74 L1481 74 Q1484 73 1484 71 L1484 -31 Q1484 -61 1439 -79 L1340 -79 Q1337 -79 1337 -76 L1337 43 Q1337 74 1341 74 Z " />
<glyph glyph-name="uni1F4F" unicode="&#x1f4f;" d="M901 1413 Q904 1406 904 1392 L904 1387 Q904 1263 812 1155 Q712 1059 616 1059 L598 1059 Q593 1060 593 1068 L593 1097 Q593 1209 699 1322 Q811 1413 901 1413 Z M876 1044 Q1042 1044 1157 923 Q1180 895 1180 890 Q1016 774 1016 604 L1016 599 Q1016 403 1201 298 Q1222 289 1222 286 Q1222 266 1153 127 Q1107 47 1034 -41 Q960 -120 879 -120 L874 -120 Q818 -120 719 -74 Q673 -60 636 -60 L619 -60 Q553 -60 453 -106 Q410 -122 375 -122 L367 -122 Q247 -122 102 121 Q-29 356 -29 571 L-29 601 Q-29 785 92 923 Q212 1038 348 1038 L364 1038 Q422 1038 557 982 Q586 973 601 973 L609 973 Q634 973 769 1025 Q833 1044 876 1044 Z " />
<glyph glyph-name="uni1F50" unicode="&#x1f50;" horiz-adv-x="819" d="M471 1519 L474 1519 Q487 1519 537 1440 Q574 1385 578 1385 Q679 1420 768 1420 Q849 1420 960 1385 Q1044 1508 1054 1517 L1063 1519 Q1073 1516 1074 1511 L1074 1503 Q1074 1496 998 1389 Q998 1388 987 1372 Q1045 1352 1132 1268 Q1197 1194 1221 1104 Q1226 1080 1229 1054 L1226 1052 L311 1052 Q308 1052 308 1056 Q308 1123 367 1222 Q449 1326 522 1357 Q527 1362 548 1372 Q468 1487 461 1501 L461 1509 Q461 1511 471 1519 Z M524 1235 L524 1224 Q524 1190 570 1179 L575 1179 Q624 1189 624 1229 Q615 1280 573 1280 Q524 1270 524 1235 Z M918 1229 Q918 1187 970 1179 Q1004 1179 1018 1217 Q1020 1224 1020 1231 Q1020 1271 969 1280 Q918 1271 918 1229 Z M143 990 L146 990 Q210 990 242 917 Q247 903 247 884 L247 480 Q247 405 168 377 Q154 373 141 373 Q73 373 44 446 Q39 459 39 474 L39 891 Q39 958 115 987 Q128 990 143 990 Z M1389 990 L1392 990 Q1469 990 1495 907 Q1496 899 1496 891 L1496 474 Q1496 411 1425 378 Q1408 373 1391 373 Q1319 373 1290 457 Q1289 471 1289 480 L1289 884 Q1289 959 1366 987 Q1378 990 1389 990 Z M311 988 L1228 988 Q1231 988 1231 985 L1231 240 Q1231 185 1168 164 Q1165 162 1160 162 L1058 162 L1058 -63 Q1058 -135 985 -164 Q972 -169 957 -169 L954 -169 Q880 -169 853 -90 Q850 -73 850 -60 L850 162 L690 162 L690 -59 Q690 -145 603 -167 Q597 -169 585 -169 Q517 -169 487 -98 Q482 -85 482 -70 L482 159 Q482 162 479 162 L380 162 Q355 162 326 192 Q308 213 308 263 L308 985 Q308 988 311 988 Z " />
<glyph glyph-name="uni1F51" unicode="&#x1f51;" horiz-adv-x="819" d="M765 1529 Q1033 1529 1231 1324 Q1322 1221 1358 1113 Q1401 1093 1437 1036 Q1459 991 1459 949 L1459 939 Q1459 836 1351 771 Q1307 751 1267 751 L1264 751 Q1260 751 1260 754 L1260 1136 Q1260 1139 1276 1139 Q1247 1200 1201 1259 Q1097 1387 917 1442 Q842 1462 785 1462 L770 1462 Q766 1462 763 1464 Q760 1462 756 1462 L741 1462 Q581 1462 417 1348 Q322 1265 298 1221 Q266 1176 251 1139 L263 1139 Q267 1139 267 1136 L267 754 Q267 751 263 751 L258 751 Q152 751 87 859 Q67 901 67 948 Q67 1046 161 1110 Q169 1110 186 1161 Q220 1240 315 1346 Q510 1529 765 1529 Z M765 1334 Q981 1334 1124 1144 Q1194 1034 1194 912 Q1194 690 987 551 Q879 491 768 491 L758 491 Q544 491 402 681 Q332 793 332 913 Q332 1112 506 1252 Q627 1334 765 1334 Z M335 527 Q523 363 754 363 L771 363 Q1002 363 1192 527 L1194 527 Q1255 497 1319 448 Q1531 270 1531 2 L1527 0 L3 0 L0 2 Q0 273 214 450 Q274 498 335 527 Z " />
<glyph glyph-name="uni1F52" unicode="&#x1f52;" horiz-adv-x="1538" d="M788 1444 L796 1444 Q885 1444 927 1350 Q934 1327 934 1304 L934 146 Q934 49 828 11 Q811 8 794 8 L793 8 Q729 8 679 66 L315 401 L124 401 Q60 401 20 471 Q10 497 10 515 L10 932 Q10 1019 109 1049 Q126 1051 136 1051 L316 1051 Q670 1379 714 1418 Q752 1444 788 1444 Z M332 980 L138 980 Q100 980 85 930 L85 532 Q85 480 139 471 L333 471 Q353 471 406 413 L742 105 Q762 91 784 91 Q835 91 856 146 Q859 159 859 175 L859 1277 Q859 1338 808 1356 Q799 1359 782 1361 Q744 1361 691 1299 Q676 1288 383 1015 Q349 980 332 980 Z M1233 1327 L1235 1327 Q1268 1323 1371 1197 Q1443 1099 1473 1024 Q1531 874 1531 750 L1531 706 Q1531 489 1385 275 Q1354 226 1254 136 Q1242 131 1237 131 Q1206 136 1206 161 L1206 163 Q1206 181 1252 217 Q1470 434 1470 729 Q1470 1051 1206 1281 Q1203 1293 1203 1296 Q1210 1327 1233 1327 Z M1055 1066 L1061 1066 Q1089 1066 1164 969 Q1240 856 1240 724 Q1240 535 1087 398 Q1077 387 1065 387 L1058 387 Q1039 387 1033 416 L1033 420 Q1033 436 1070 466 Q1177 580 1177 714 L1177 736 Q1177 880 1058 997 Q1029 1017 1029 1034 L1029 1041 Q1036 1066 1055 1066 Z " />
<glyph glyph-name="uni1F53" unicode="&#x1f53;" horiz-adv-x="819" d="M816 1024 L875 1024 Q975 1024 1087 916 Q1161 810 1161 740 L1161 673 Q1161 577 1053 463 Q948 389 878 389 L810 389 Q727 389 622 478 Q536 577 529 663 L526 682 L-7 682 Q-11 682 -16 673 L-16 580 L-13 565 L-19 562 L-69 562 L-69 666 L-72 682 L-201 682 Q-207 681 -207 676 L-207 469 Q-207 463 -214 463 L-254 463 Q-260 463 -260 469 L-260 676 Q-260 682 -266 682 L-380 682 L-380 731 Q-379 737 -374 737 L529 737 Q529 828 619 932 Q724 1024 816 1024 Z M585 707 Q585 555 733 472 Q774 454 810 448 L875 448 Q954 452 1041 534 Q1106 618 1106 710 Q1106 838 989 925 Q919 969 847 969 Q685 969 606 811 Q585 759 585 707 Z " />
<glyph glyph-name="uni1F54" unicode="&#x1f54;" horiz-adv-x="1402" d="M680 1442 L735 1442 Q900 1442 1038 1272 Q1107 1168 1107 1030 L1107 897 L1142 897 Q1292 897 1340 782 Q1355 752 1355 718 L1355 176 Q1355 56 1216 3 Q1201 0 1191 0 L224 0 Q127 0 69 124 Q60 155 60 176 L60 718 Q60 828 184 885 Q213 897 273 897 L308 897 L308 1050 Q308 1274 527 1402 Q615 1442 680 1442 Z M360 1061 L360 903 L357 897 L1055 897 L1055 1047 Q1055 1270 827 1373 Q763 1393 706 1393 Q505 1393 395 1200 Q360 1128 360 1061 Z M109 689 L109 205 Q109 90 201 55 Q227 49 239 49 L1176 49 Q1268 49 1303 159 Q1306 188 1306 205 L1306 689 Q1306 801 1214 839 Q1181 845 1167 845 L247 845 Q153 845 115 747 Q109 718 109 689 Z " />
<glyph glyph-name="uni1F55" unicode="&#x1f55;" horiz-adv-x="907" d="M807 1442 Q869 1442 877 1358 L877 81 Q867 0 807 0 L89 0 Q32 0 20 72 L20 1367 Q20 1423 78 1442 L807 1442 Z M75 1376 L75 1280 L822 1280 L822 1367 Q822 1387 802 1387 L86 1387 Q82 1387 75 1376 Z M75 1226 L75 375 L822 375 L822 1226 L75 1226 Z M75 320 L75 66 Q79 55 95 55 L802 55 Q822 55 822 81 L822 320 L75 320 Z M372 213 L522 213 Q528 213 528 208 L528 164 Q528 159 522 159 L372 159 Q366 159 366 164 L366 208 Q367 213 372 213 Z " />
<glyph glyph-name="uni1F56" unicode="&#x1f56;" horiz-adv-x="1535" d="M749 1420 L771 1420 Q983 1420 1179 1284 Q1218 1258 1290 1183 Q1372 1086 1401 1015 Q1470 869 1470 721 L1470 699 Q1470 487 1334 291 Q1308 252 1233 180 Q1136 98 1065 69 Q919 0 771 0 L749 0 Q537 0 341 136 Q302 162 230 237 Q148 334 119 405 Q50 551 50 699 L50 721 Q50 933 186 1129 Q212 1168 287 1240 Q384 1322 455 1351 Q601 1420 749 1420 Z M646 591 L645 591 Q471 764 469 764 Q462 767 456 767 Q441 767 409 729 Q370 696 370 681 Q370 664 424 616 Q628 409 635 408 Q642 405 646 405 Q661 405 699 448 Q1136 883 1147 897 L1150 907 Q1150 924 1109 958 Q1078 996 1061 996 L1060 996 Q1048 996 1004 947 Q943 886 646 591 Z " />
<glyph glyph-name="uni1F57" unicode="&#x1f57;" horiz-adv-x="1097" d="M545 1238 L561 1238 Q1019 1238 1388 884 Q1435 830 1435 768 Q1435 676 1319 588 Q974 297 561 297 L545 297 Q98 297 -266 636 Q-329 695 -329 768 Q-329 859 -213 947 Q132 1238 545 1238 Z M-233 768 Q-233 727 -168 677 Q154 393 549 393 L557 393 Q932 393 1248 653 Q1336 726 1336 756 Q1336 765 1338 768 Q1338 811 1260 870 Q943 1142 557 1142 L549 1142 Q153 1142 -173 854 Q-233 805 -233 768 Z M553 1014 Q691 1014 773 878 Q799 816 799 768 Q799 628 661 547 Q603 521 553 521 Q413 521 332 659 Q307 717 307 768 Q307 907 445 988 Q503 1014 553 1014 Z M403 768 Q403 668 512 624 Q548 618 553 618 Q652 618 697 726 Q703 763 703 768 Q703 867 594 911 Q558 917 553 917 Q453 917 409 809 Q403 772 403 768 Z " />
<glyph glyph-name="uni1F58" unicode="&#x1f58;" d="M535 1246 Q651 1246 745 1160 Q835 1067 835 950 L835 931 Q835 817 738 721 Q734 719 729 719 Q718 719 710 732 L710 739 Q710 748 751 791 Q798 868 798 942 Q798 1093 654 1179 Q595 1207 533 1207 Q377 1207 291 1049 Q270 987 270 944 Q270 794 414 709 Q460 678 587 678 Q667 668 736 642 Q827 607 928 512 Q1025 402 1060 277 Q1068 239 1068 225 Q1062 210 1049 210 Q1031 210 1025 255 Q974 440 846 534 Q796 573 732 603 Q630 644 490 644 Q408 658 350 706 Q282 747 242 866 Q233 904 233 931 L233 950 Q233 1093 363 1192 Q444 1246 535 1246 Z M350 646 Q367 637 367 627 Q367 609 313 592 Q246 561 164 480 Q59 357 41 240 Q35 210 17 210 Q3 210 0 229 Q13 344 112 480 Q204 579 257 603 Q322 641 350 646 Z " />
<glyph glyph-name="uni1F59" unicode="&#x1f59;" horiz-adv-x="1436" d="M711 1417 L726 1417 Q1005 1417 1225 1205 Q1427 988 1427 716 L1427 701 Q1427 422 1215 202 Q998 0 726 0 L711 0 Q432 0 212 212 Q10 429 10 701 L10 716 Q10 995 222 1215 Q439 1417 711 1417 Z M91 709 Q91 462 270 271 Q463 81 719 81 Q965 81 1156 260 Q1346 453 1346 709 Q1346 955 1167 1146 Q974 1336 719 1336 Q472 1336 281 1157 Q91 964 91 709 Z M680 1126 L757 1126 Q760 1125 760 1122 L760 524 Q760 521 757 521 L680 521 Q677 521 677 524 L677 1122 Q678 1126 680 1126 Z M680 424 L757 424 Q760 423 760 420 L760 295 Q760 291 757 291 L680 291 Q677 291 677 295 L677 420 Q678 424 680 424 Z " />
<glyph glyph-name="uni1F60" unicode="&#x1f60;" horiz-adv-x="861" d="M74 1436 L787 1436 Q839 1436 860 1379 Q861 1371 861 1364 L861 72 Q861 22 802 1 Q793 0 787 0 L74 0 Q22 0 1 57 Q0 65 0 72 L0 1364 Q0 1414 59 1435 Q68 1436 74 1436 Z M76 1287 L76 248 L785 248 L785 1287 L76 1287 Z M380 122 Q380 92 415 77 Q429 74 431 74 Q481 83 481 123 Q481 159 440 172 L425 172 Q381 163 381 129 Q380 129 380 122 Z " />
<glyph glyph-name="uni1F6A" unicode="&#x1f6a;" horiz-adv-x="1056" d="M-113 1300 L1169 1300 Q1216 1300 1232 1282 Q1199 1253 528 731 Q-143 1253 -176 1282 Q-160 1300 -113 1300 Z M-179 1279 L264 851 Q250 833 -179 323 L-179 322 L-182 322 Q-200 338 -200 376 L-200 1229 Q-200 1260 -179 1279 Z M1235 1279 Q1256 1260 1256 1229 L1256 376 Q1256 338 1238 322 L1235 322 Q1218 344 794 848 L792 851 L1235 1279 Z M342 772 L343 772 Q376 743 528 595 Q686 748 713 772 L714 772 Q1229 323 1233 317 Q1213 299 1195 299 L-139 299 Q-157 299 -177 317 Q-173 323 342 772 Z " />
<glyph glyph-name="uni1F6B" unicode="&#x1f6b;" horiz-adv-x="2048" d="M1338 1194 L1402 1130 L1050 808 L860 1000 L510 680 L572 616 L860 872 L1050 680 L1466 1066 L1530 1000 L1530 1194 L1338 1194 Z M770 378 L622 378 Q604 378 591 364 Q578 350 578 330 L578 50 Q578 44 580 37 Q582 30 586 24 Q590 18 596 13 Q602 8 608 6 Q614 4 622 4 L770 4 Q790 4 803 18 Q816 32 816 50 L816 330 Q816 338 814 344 Q812 350 809 355 Q806 360 802 364 Q798 368 793 371 Q788 374 782 376 Q776 378 770 378 Z M1110 582 L962 582 Q950 582 939 576 Q928 570 922 559 Q916 548 916 534 L916 52 Q916 32 930 18 Q944 4 962 4 L1110 4 Q1130 4 1143 18 Q1156 32 1156 52 L1156 534 Q1156 544 1152 553 Q1148 562 1142 568 Q1136 574 1128 578 Q1120 582 1110 582 Z M1484 752 L1336 752 Q1316 752 1303 738 Q1290 724 1290 704 L1290 52 Q1290 32 1303 18 Q1316 4 1336 4 L1484 4 Q1496 4 1506 10 Q1516 16 1522 28 Q1528 40 1528 52 L1528 704 Q1528 714 1525 723 Q1522 732 1516 738 Q1510 744 1502 748 Q1494 752 1484 752 Z " />
<glyph glyph-name="uni1F6C" unicode="&#x1f6c;" horiz-adv-x="2048" d="M902 464 Q786 464 687 521 Q588 578 530 677 Q472 776 472 894 Q472 1072 598 1198 Q724 1324 902 1324 Q1080 1324 1206 1198 Q1332 1072 1332 894 Q1332 776 1275 677 Q1218 578 1119 521 Q1020 464 902 464 Z M902 1242 Q758 1242 656 1140 Q554 1038 554 894 Q554 750 656 648 Q758 546 902 546 Q998 546 1078 592 Q1158 638 1204 719 Q1250 800 1250 894 Q1250 988 1204 1068 Q1158 1148 1078 1195 Q998 1242 902 1242 Z M254 -186 Q238 -186 226 -174 Q214 -162 214 -144 Q214 140 414 342 Q426 354 443 354 Q460 354 472 342 Q484 330 484 313 Q484 296 472 284 Q386 198 341 87 Q296 -24 296 -144 Q296 -154 292 -161 Q288 -168 283 -174 Q278 -180 270 -183 Q262 -186 254 -186 L254 -186 Z M906 462 Q898 462 890 465 Q882 468 875 473 Q868 478 865 486 Q862 494 860 502 Q860 512 865 522 Q870 532 879 538 Q888 544 898 544 L900 544 L902 544 Q1042 544 1170 490 Q1298 436 1390 343 Q1482 250 1537 123 Q1592 -4 1592 -144 Q1592 -162 1580 -174 Q1568 -186 1552 -186 Q1540 -186 1530 -180 Q1520 -174 1515 -165 Q1510 -156 1510 -144 Q1510 20 1429 160 Q1348 300 1209 381 Q1070 462 906 462 Z M1378 1154 Q1362 1154 1350 1166 Q1338 1178 1338 1194 Q1338 1206 1343 1215 Q1348 1224 1358 1230 Q1368 1236 1378 1236 Q1524 1236 1627 1127 Q1730 1018 1730 865 Q1730 712 1627 603 Q1524 494 1378 494 Q1344 504 1338 536 Q1338 552 1350 564 Q1362 576 1378 576 Q1490 576 1569 661 Q1648 746 1648 865 Q1648 984 1569 1069 Q1490 1154 1378 1154 Z M1378 494 Q1362 494 1350 506 Q1338 518 1338 535 Q1338 552 1350 564 Q1362 576 1378 576 Q1610 576 1774 403 Q1938 230 1938 -14 Q1938 -20 1937 -24 Q1936 -28 1934 -32 Q1932 -36 1929 -40 Q1926 -44 1923 -47 Q1920 -50 1915 -52 Q1910 -54 1906 -55 Q1902 -56 1896 -56 Q1886 -56 1876 -50 Q1866 -44 1861 -35 Q1856 -26 1856 -14 Q1856 196 1716 345 Q1576 494 1378 494 L1378 494 Z " />
<glyph glyph-name="uni1F6D" unicode="&#x1f6d;" horiz-adv-x="2048" d="M1734 806 Q1604 936 1424 962 L1424 1146 L1424 1150 Q1424 1238 1248 1292 Q1088 1340 865 1340 Q642 1340 482 1292 Q424 1274 385 1252 Q346 1230 326 1204 Q306 1178 306 1150 Q306 1144 308 1138 L306 1138 L306 1004 Q302 1002 297 1000 Q292 998 286 995 Q280 992 275 990 Q270 988 264 985 Q258 982 252 978 Q158 924 158 858 L158 846 L158 642 Q158 620 168 600 Q178 580 196 563 Q214 546 242 530 Q270 514 304 502 L304 330 Q304 316 309 301 Q314 286 323 273 Q332 260 346 246 Q410 186 558 150 Q706 114 858 114 L896 116 Q926 72 962 34 Q1122 -124 1348 -124 Q1574 -124 1734 35 Q1894 194 1894 420 Q1894 646 1734 806 Z M368 966 L368 1058 Q410 1028 482 1006 Q642 958 865 958 Q1088 958 1248 1006 Q1320 1028 1364 1058 L1364 966 L1348 966 Q1240 966 1140 925 Q1040 884 962 806 Q948 792 936 778 Q848 774 758 783 Q668 792 595 809 Q522 826 466 849 Q410 872 384 896 Q368 910 368 920 L368 962 L368 962 L368 966 Z M500 1234 Q548 1248 607 1259 Q666 1270 731 1275 Q796 1280 866 1280 Q1080 1280 1230 1234 Q1278 1220 1309 1203 Q1340 1186 1352 1173 Q1364 1160 1364 1150 Q1364 1132 1331 1108 Q1298 1084 1230 1064 Q1182 1050 1124 1040 Q1066 1030 1000 1024 Q934 1018 866 1018 Q762 1018 667 1030 Q572 1042 500 1064 Q432 1084 399 1108 Q366 1132 366 1150 Q366 1188 474 1226 Q488 1230 500 1234 Z M306 938 L306 920 L308 920 Q308 884 342 852 Q404 794 558 755 Q712 716 882 716 Q662 690 474 730 Q312 762 242 824 Q218 846 218 858 Q218 878 243 899 Q268 920 306 938 Z M238 606 Q222 622 218 638 L218 766 Q304 702 462 670 Q502 662 543 657 Q584 652 626 649 Q668 646 712 646 Q736 646 759 647 Q782 648 806 649 Q830 650 854 654 Q820 580 808 500 Q630 490 466 520 Q296 552 238 606 Z M804 384 Q698 382 597 406 Q496 430 432 466 Q574 438 738 438 Q770 438 804 440 L802 420 Q804 402 804 384 Z M386 290 Q376 300 371 310 Q366 320 364 328 L366 328 L366 438 Q436 386 558 354 Q670 324 784 324 L812 324 Q826 246 862 174 Q768 174 671 189 Q574 204 498 231 Q422 258 386 290 Z M1348 -64 Q1148 -64 1006 78 Q864 220 864 420 Q864 552 929 664 Q994 776 1105 841 Q1216 906 1348 906 Q1550 906 1692 764 Q1834 622 1834 420 Q1834 206 1676 62 Q1534 -64 1348 -64 Z M1508 726 L1412 548 Q1372 476 1364 452 L1362 452 Q1336 510 1218 726 L1128 726 L1296 436 L1158 436 L1158 372 L1320 372 L1320 284 L1158 284 L1158 218 L1320 218 L1320 90 L1400 90 L1400 218 L1558 218 L1558 284 L1400 284 L1400 372 L1558 372 L1558 436 L1422 436 L1594 726 L1508 726 Z " />
<glyph glyph-name="uni1F6E" unicode="&#x1f6e;" horiz-adv-x="2000" d="M1516 1420 L964 696 L1514 716 L712 -180 L1108 518 L540 534 L1070 1234 L1516 1420 Z " />
<glyph glyph-name="uni1F6F" unicode="&#x1f6f;" horiz-adv-x="819" d="M401 1596 Q737 1300 962 1281 Q1000 1281 1000 1256 Q1000 485 499 214 L401 182 Q251 213 82 376 Q-199 713 -199 1273 Q-91 1283 135 1386 Q277 1481 401 1596 Z M393 1499 Q114 1251 -123 1216 L-123 1200 Q-123 693 180 376 Q352 255 401 255 Q616 327 712 481 Q850 649 901 941 Q924 1097 932 1216 Q784 1216 461 1450 Q416 1499 393 1499 Z M712 1063 L727 1063 Q738 1063 750 1038 L750 1014 Q370 586 347 586 Q325 586 120 828 L120 853 Q120 864 142 877 L158 877 L355 675 Q388 729 712 1063 Z " />
<glyph glyph-name="uni1F70" unicode="&#x1f70;" horiz-adv-x="819" d="M-24 1432 L808 1432 Q864 1423 864 1368 L864 64 Q856 0 808 0 L-24 0 Q-80 9 -80 64 L-80 1368 Q-72 1432 -24 1432 Z M19 1282 L19 1124 Q35 1088 69 1088 L715 1088 Q749 1088 765 1124 L765 1282 Q749 1317 715 1317 L69 1317 Q35 1317 19 1282 Z M535 981 Q544 916 560 916 L703 916 Q720 916 734 981 Q726 1031 690 1031 L578 1031 Q535 1031 535 981 Z M69 730 L69 702 Q73 659 88 659 L218 659 Q237 666 237 702 L237 730 Q237 773 199 773 L106 773 Q69 773 69 730 Z M311 730 L311 680 Q311 670 330 659 L435 659 L467 666 L467 752 Q467 762 448 773 L349 773 Q311 773 311 730 Z M541 752 L541 680 Q541 670 560 659 L696 659 Q705 659 715 680 L715 752 Q715 762 696 773 L560 773 Q551 773 541 752 Z M541 551 L541 480 Q541 469 560 458 L696 458 Q705 458 715 480 L715 551 Q709 573 678 573 L578 573 Q541 568 541 551 Z M69 523 L69 501 Q69 451 125 451 L181 451 Q237 451 237 501 L237 523 Q237 560 218 566 L88 566 Q69 558 69 523 Z M311 544 L311 480 Q320 451 367 451 L398 451 Q467 451 467 473 L467 551 Q467 566 454 566 L330 566 Q321 566 311 544 Z M69 344 L69 301 Q69 251 125 251 L181 251 Q237 251 237 301 L237 344 Q227 372 193 372 L113 372 Q79 372 69 344 Z M311 344 L311 279 Q320 251 367 251 L417 251 Q463 251 467 272 L467 351 Q460 372 429 372 L336 372 Q326 372 311 344 Z M541 351 L541 279 Q541 269 560 258 L696 258 Q705 258 715 279 L715 351 Q709 372 678 372 L578 372 Q541 368 541 351 Z " />
<glyph glyph-name="uni1F71" unicode="&#x1f71;" horiz-adv-x="819" d="M383 1326 Q422 1326 481 1241 Q822 833 843 803 L846 789 L846 772 Q834 750 806 750 L600 750 L600 83 Q600 38 532 38 L247 38 Q182 38 182 83 L182 736 L-4 736 Q-58 736 -58 770 L-58 781 Q-58 800 83 976 Q239 1188 346 1312 Q372 1326 383 1326 Z " />
<glyph glyph-name="uni1F72" unicode="&#x1f72;" horiz-adv-x="819" d="M383 45 Q422 45 481 129 Q822 535 843 564 L846 578 L846 595 Q834 618 806 618 L600 618 L600 1280 Q600 1325 532 1325 L247 1325 Q182 1325 182 1280 L182 632 L-4 632 Q-58 632 -58 598 L-58 587 Q-58 568 83 393 Q239 182 346 59 Q372 45 383 45 Z " />
<glyph glyph-name="uni1F73" unicode="&#x1f73;" horiz-adv-x="819" d="M72 1432 Q216 1432 416 1220 Q581 1432 759 1432 Q880 1432 931 1264 Q888 1150 788 1150 L788 1141 L874 1141 Q968 1141 1103 1150 Q1160 1150 1160 1088 L1160 832 Q1160 814 1141 814 L482 814 Q463 814 463 832 L463 1132 Q416 1132 416 1141 L396 1132 L349 1132 L349 823 Q349 805 330 805 L-329 805 Q-348 805 -348 823 L-348 1114 Q-348 1132 -291 1150 Q-166 1141 -90 1141 L15 1141 L15 1150 Q-109 1178 -109 1264 Q-63 1432 72 1432 Z M492 1194 L664 1194 Q835 1202 835 1247 L835 1282 Q813 1370 740 1370 Q650 1370 492 1194 Z M-23 1255 Q25 1185 186 1185 L272 1185 L320 1194 L320 1202 Q183 1361 101 1361 L72 1361 Q-2 1361 -23 1255 Z M-262 761 L339 761 Q358 758 358 743 L358 64 Q358 46 339 46 L-253 46 Q-266 46 -281 72 L-281 743 Q-278 761 -262 761 Z M473 761 L1074 761 Q1093 758 1093 743 L1093 81 Q1093 68 1055 46 L473 46 Q454 46 454 64 L454 743 Q457 761 473 761 Z " />
<glyph glyph-name="uni1F7A" unicode="&#x1f7a;" horiz-adv-x="819" d="M-199 1134 L-167 1134 Q-99 1120 -99 1014 L-99 742 Q-99 694 -59 694 Q205 782 229 782 Q294 782 421 670 Q568 562 581 562 L601 558 Q638 558 733 658 Q1010 927 1105 1010 L1117 1010 Q1133 1006 1133 970 Q1133 761 1093 742 Q638 302 621 302 L597 298 L593 298 Q555 298 417 418 Q274 534 241 534 L217 538 Q-91 464 -91 418 L-99 390 L-99 234 Q-99 182 -15 182 L877 182 Q1117 182 1117 138 Q1127 138 1137 98 L1137 78 Q1124 6 1009 6 L-99 6 Q-275 6 -275 238 L-275 1050 Q-275 1134 -199 1134 Z " />
<glyph glyph-name="uni1F80" unicode="&#x1f80;" horiz-adv-x="2320" d="M619 738 Q611 738 604.5 741.5 Q598 745 594 751 Q590 757 590 765 Q590 775 598.5 783 Q607 791 619 791 L1291 791 Q1303 791 1311.5 783 Q1320 775 1320 764.5 Q1320 754 1311.5 746 Q1303 738 1291 738 L619 738 Z M619 507 Q611 507 604.5 510.5 Q598 514 594 520 Q590 526 590 533 Q590 544 598.5 552 Q607 560 619 560 L1050 560 Q1062 560 1070.5 552 Q1079 544 1079 533 Q1079 526 1075 520 Q1071 514 1064.5 510.5 Q1058 507 1050 507 L619 507 Z M1516 738 Q1504 738 1495.5 746 Q1487 754 1487 764.5 Q1487 775 1495.5 783 Q1504 791 1516 791 L1864 791 Q1876 791 1884.5 783 Q1893 775 1893 764.5 Q1893 754 1884.5 746 Q1876 738 1864 738 L1516 738 Z M2069 1049 L414 1049 L414 970 L2069 970 L2069 1049 Z M1892 153 L591 153 Q502 153 439.5 210.5 Q377 268 377 348 L377 1210 Q377 1291 439.5 1348.5 Q502 1406 591 1406 L1892 1406 Q1950 1406 1999.5 1379.5 Q2049 1353 2077.5 1308 Q2106 1263 2106 1210 L2106 349 Q2106 268 2043 210.5 Q1980 153 1892 153 Z M591 1338 Q533 1338 492 1300.5 Q451 1263 451 1210 L451 349 Q451 296 492 258.5 Q533 221 591 221 L1892 221 Q1950 221 1991 258.5 Q2032 296 2032 349 L2032 1210 Q2032 1263 1991 1300.5 Q1950 1338 1892 1338 L591 1338 Z " />
<glyph glyph-name="uni1F81" unicode="&#x1f81;" horiz-adv-x="2126" d="M1875 99 L369 99 Q338 99 316 119 Q294 139 294 168 L294 1211 Q294 1240 316 1260 Q338 1280 369 1280 L1875 1280 Q1906 1280 1928 1260 Q1950 1240 1950 1211 L1950 168 Q1950 139 1928 119 Q1906 99 1875 99 Z M369 1233 Q359 1233 352 1226.5 Q345 1220 345 1211 L345 168 Q345 159 352 152.5 Q359 146 369 146 L1875 146 Q1885 146 1892 152.5 Q1899 159 1899 168 L1899 1211 Q1899 1220 1892 1226.5 Q1885 1233 1875 1233 L369 1233 Z M1186 965 L1705 965 L1705 919 L1186 919 L1186 965 Z M1186 665 L1705 665 L1705 618 L1186 618 L1186 665 Z M522 377 L1705 377 L1705 331 L522 331 L522 377 Z M1046 500 L534 500 L534 524 Q534 589 578 642 Q622 695 695 720 Q701 722 710 724 Q715 725 719 726 Q720 727 721 727 L721 728 L721 730 Q721 734 710 740 L704 743 Q662 764 637.5 803.5 Q613 843 613 890 Q613 958 660.5 1006.5 Q708 1055 775.5 1055 Q843 1055 891 1006.5 Q939 958 939 890 Q939 846 914.5 807 Q890 768 858 749 Q842 738 840 735 Q840 732 846.5 730 Q853 728 857 727 L860 727 Q942 707 994 650.5 Q1046 594 1046 524 L1046 500 Z M587 547 L993 547 Q991 559 986.5 570 Q982 581 976 591.5 Q970 602 962.5 612 Q955 622 945.5 630.5 Q936 639 925 647 Q914 655 902 661 Q890 667 876.5 672.5 Q863 678 849 681 Q833 683 820 689.5 Q807 696 797.5 708 Q788 720 788 735 Q788 747 794.5 757 Q801 767 808.5 773 Q816 779 830 787 Q853 802 870.5 830.5 Q888 859 888 890 Q888 939 855 973.5 Q822 1008 776 1008 Q730 1008 697 973.5 Q664 939 664 890 Q664 856 681.5 827 Q699 798 729 784 L734 781 Q772 762 772 730 Q772 700 746 687 L746 686 L745 686 Q739 683 733 681 Q728 680 725 679 Q724 679 722 679 L715 676 Q680 665 653 646 Q626 627 609 601.5 Q592 576 587 547 Z " />
<glyph glyph-name="uni1F82" unicode="&#x1f82;" horiz-adv-x="2048" d="M1773 1242 L1773 1242 Q1839 1242 1886.5 1198.5 Q1934 1155 1934 1094 L1934 202 Q1934 162 1912.5 128 Q1891 94 1854 74 Q1817 54 1773 54 L273 54 Q229 54 192 74 Q155 94 133.5 128 Q112 162 112 202 L112 1094 Q112 1155 159 1198.5 Q206 1242 273 1242 L1773 1242 Z M219 202 L219 202 L219 200 L692 637 L219 1075 L219 202 Z M297 1143 L297 1143 L1023 472 L1749 1143 L297 1143 Z M768 568 L768 568 L319 153 L1729 153 L1279 569 L1023 332 L768 568 Z M1356 637 L1356 637 L1827 203 L1827 1075 L1353 637 L1356 637 Z " />
<glyph glyph-name="uni1F83" unicode="&#x1f83;" horiz-adv-x="2048" d="M1772 950 Q1833 806 1833 647.5 Q1833 489 1772 344 Q1713 205 1605.5 97 Q1498 -11 1358 -70 Q1213 -131 1055 -131 Q897 -131 752 -70 Q613 -11 505 97 Q397 205 338 344 Q277 489 277 647.5 Q277 806 338 950 Q397 1090 504.5 1197.5 Q612 1305 752 1364 Q897 1426 1055 1426 Q1213 1426 1358 1364 Q1498 1305 1605.5 1197.5 Q1713 1090 1772 950 Z M861 638 Q942 557 1056.5 557 Q1171 557 1252 638 Q1333 719 1333 833 Q1333 889 1311 940.5 Q1289 992 1252 1029 Q1215 1066 1164 1087.5 Q1113 1109 1057 1109 Q942 1109 861 1028 Q780 947 780 833 Q780 719 861 638 Z M758 375 Q633 275 593 121 Q678 46 782 2 Q913 -53 1055.5 -53 Q1198 -53 1328 2 Q1432 46 1518 121 Q1477 275 1352 375 Q1222 478 1055 478 Q889 478 758 375 Z M1400 436 Q1527 336 1580 183 Q1656 269 1701 375 Q1756 505 1756 647.5 Q1756 790 1701 920 Q1647 1046 1550 1143 Q1453 1240 1328 1293 Q1198 1348 1055.5 1348 Q913 1348 782 1293 Q657 1240 560 1143 Q463 1046 410 920 Q355 790 355 647.5 Q355 505 410 375 Q454 269 530 183 Q584 336 710 436 Q782 493 869 524 Q874 526 878 527 Q804 571 757 644 Q702 730 702 833 Q702 929 749.5 1010.5 Q797 1092 878.5 1139.5 Q960 1187 1056.5 1187 Q1153 1187 1234.5 1139.5 Q1316 1092 1363.5 1010.5 Q1411 929 1411 833 Q1411 730 1356 643 Q1309 570 1234 527 Q1237 526 1241 524 Q1328 494 1400 436 Z " />
<glyph glyph-name="uni1F84" unicode="&#x1f84;" horiz-adv-x="2048" d="M1738 359 Q1759 350 1769.5 324.5 Q1780 299 1772 278 Q1715 136 1610.5 28.5 Q1506 -79 1368 -137 Q1230 -195 1078 -195 Q976 -195 879.5 -168 Q783 -141 701 -92.5 Q619 -44 550 25.5 Q481 95 432.5 177.5 Q384 260 357.5 357 Q331 454 331 556 Q331 658 357.5 755.5 Q384 853 432.5 935.5 Q481 1018 550 1087 Q619 1156 701 1204.5 Q783 1253 879.5 1280 Q976 1307 1078 1307 Q1284 1307 1461 1200 L1404 1361 Q1396 1382 1409.5 1407 Q1423 1432 1445 1435 Q1473 1439 1493 1420 Q1513 1401 1522 1374 L1626 1085 Q1634 1064 1624 1043.5 Q1614 1023 1593 1015 L1302 886 Q1293 883 1276 883 Q1260 883 1240.5 896 Q1221 909 1216 925 Q1208 946 1219.5 973 Q1231 1000 1251 1007 L1410 1065 Q1405 1067 1404 1068 Q1258 1159 1084 1159 Q961 1159 849 1111 Q737 1063 656 981.5 Q575 900 527 787 Q479 674 479 550 Q479 426 527 313.5 Q575 201 656 119.5 Q737 38 849 -10.5 Q961 -59 1084 -59 Q1272 -59 1425 45.5 Q1578 150 1647 325 Q1655 345 1686 356 Q1717 367 1738 359 Z " />
<glyph glyph-name="endash" unicode="&#x2013;" horiz-adv-x="1108" d="M56 419 L56 539 L1052 539 L1052 419 L56 419 Z " />
<glyph glyph-name="emdash" unicode="&#x2014;" horiz-adv-x="2048" d="M0 419 L0 539 L2048 539 L2048 419 L0 419 Z " />
<glyph glyph-name="quoteleft" unicode="&#x2018;" horiz-adv-x="557" d="M319 1016 Q275 1016 230.5 1081.5 Q186 1147 186 1233 Q186 1342 257 1459.5 Q328 1577 396 1577 L396 1534 Q323 1491 309 1344 Q309 1225 438 1183 L438 1141 L319 1016 Z " />
<glyph glyph-name="quoteright" unicode="&#x2019;" horiz-adv-x="557" d="M238 1577 Q282 1577 326.5 1511.5 Q371 1446 371 1360 Q371 1251 300 1133.5 Q229 1016 161 1016 L161 1059 Q234 1102 248 1249 Q248 1368 119 1410 L119 1452 L238 1577 Z " />
<glyph glyph-name="quotesinglbase" unicode="&#x201a;" horiz-adv-x="557" d="M238 281 Q282 281 326.5 215.5 Q371 150 371 64 Q371 -45 300 -162.5 Q229 -280 161 -280 L161 -237 Q234 -194 248 -47 Q248 72 119 114 L119 156 L238 281 Z " />
<glyph glyph-name="quotedblleft" unicode="&#x201c;" horiz-adv-x="910" d="M319 1016 Q275 1016 230.5 1081.5 Q186 1147 186 1233 Q186 1342 257 1459.5 Q328 1577 396 1577 L396 1534 Q323 1491 309 1344 Q309 1225 438 1183 L438 1141 L319 1016 Z M672 1016 Q628 1016 583.5 1081.5 Q539 1147 539 1233 Q539 1342 610 1459.5 Q681 1577 749 1577 L749 1534 Q676 1491 662 1344 Q662 1225 791 1183 L791 1141 L672 1016 Z " />
<glyph glyph-name="quotedblright" unicode="&#x201d;" horiz-adv-x="910" d="M238 1577 Q282 1577 326.5 1511.5 Q371 1446 371 1360 Q371 1251 300 1133.5 Q229 1016 161 1016 L161 1059 Q234 1102 248 1249 Q248 1368 119 1410 L119 1452 L238 1577 Z M591 1577 Q635 1577 679.5 1511.5 Q724 1446 724 1360 Q724 1251 653 1133.5 Q582 1016 514 1016 L514 1059 Q587 1102 601 1249 Q601 1368 472 1410 L472 1452 L591 1577 Z " />
<glyph glyph-name="quotedblbase" unicode="&#x201e;" horiz-adv-x="910" d="M238 281 Q282 281 326.5 215.5 Q371 150 371 64 Q371 -45 300 -162.5 Q229 -280 161 -280 L161 -237 Q234 -194 248 -47 Q248 72 119 114 L119 156 L238 281 Z M591 281 Q635 281 679.5 215.5 Q724 150 724 64 Q724 -45 653 -162.5 Q582 -280 514 -280 L514 -237 Q587 -194 601 -47 Q601 72 472 114 L472 156 L591 281 Z " />
<glyph glyph-name="dagger" unicode="&#x2020;" horiz-adv-x="1014" d="M486 1022 Q478 1119 432 1200 Q375 1301 375 1329 Q375 1378 411 1407.5 Q447 1437 507 1437 Q564 1437 601.5 1409.5 Q639 1382 639 1338 Q639 1306 584 1201 Q538 1116 529 1022 Q625 1030 706 1076 Q807 1133 835 1133 Q884 1133 914 1097 Q944 1061 944 1001 Q944 944 916.5 906.5 Q889 869 844 869 Q812 869 708 924 Q623 970 529 981 Q537 805 639 704 Q533 244 527 -270 L489 -270 Q483 244 375 704 Q477 805 486 981 Q390 971 308 926 Q207 869 179 869 Q130 869 100.5 905 Q71 941 71 1001 Q71 1058 98.5 1095.5 Q126 1133 170 1133 Q202 1133 307 1077 Q392 1031 486 1022 Z " />
<glyph glyph-name="daggerdbl" unicode="&#x2021;" horiz-adv-x="1014" d="M528 186 Q622 197 707 243 Q811 298 843 298 Q888 298 915.5 260.5 Q943 223 943 166 Q943 106 913 70 Q883 34 834 34 Q806 34 705 91 Q624 137 528 145 Q537 51 583 -34 Q638 -139 638 -171 Q638 -215 600.5 -242.5 Q563 -270 506 -270 Q446 -270 410 -240.5 Q374 -211 374 -162 Q374 -134 431 -33 Q477 48 485 145 Q391 136 306 90 Q201 34 169 34 Q125 34 97.5 71.5 Q70 109 70 166 Q70 226 99.5 262 Q129 298 178 298 Q206 298 307 241 Q389 196 485 186 Q476 412 374 584 Q476 755 485 981 Q389 971 307 926 Q206 869 178 869 Q129 869 99.5 905 Q70 941 70 1001 Q70 1058 97.5 1095.5 Q125 1133 169 1133 Q201 1133 306 1077 Q391 1031 485 1022 Q477 1119 431 1200 Q374 1301 374 1329 Q374 1378 410 1407.5 Q446 1437 506 1437 Q563 1437 600.5 1409.5 Q638 1382 638 1338 Q638 1306 583 1201 Q537 1116 528 1022 Q624 1030 705 1076 Q806 1133 834 1133 Q883 1133 913 1097 Q943 1061 943 1001 Q943 944 915.5 906.5 Q888 869 843 869 Q811 869 707 924 Q622 970 528 981 Q536 755 638 584 Q536 412 528 186 Z " />
<glyph glyph-name="bullet" unicode="&#x2022;" horiz-adv-x="1024" d="M216 718 Q216 841 303 927 Q390 1013 513 1013 Q635 1013 721.5 926.5 Q808 840 808 718 Q808 596 720.5 508.5 Q633 421 511 421 Q388 421 302 508 Q216 595 216 718 Z " />
<glyph glyph-name="ellipsis" unicode="&#x2026;" horiz-adv-x="2048" d="M145 167 L227 251 Q242 265 256 265 Q269 265 287 249 L367 163 Q379 147 379 134 Q379 119 365 103 L285 15 Q265 -5 256 -5 Q240 -5 227 9 L139 110 Q129 123 129 136 Q129 151 145 167 Z M828 167 L910 251 Q925 265 939 265 Q952 265 970 249 L1050 163 Q1062 147 1062 134 Q1062 119 1048 103 L968 15 Q948 -5 939 -5 Q923 -5 910 9 L822 110 Q812 123 812 136 Q812 151 828 167 Z M1511 167 L1593 251 Q1608 265 1622 265 Q1635 265 1653 249 L1733 163 Q1745 147 1745 134 Q1745 119 1731 103 L1651 15 Q1631 -5 1622 -5 Q1606 -5 1593 9 L1505 110 Q1495 123 1495 136 Q1495 151 1511 167 Z " />
<glyph glyph-name="guilsinglleft" unicode="&#x2039;" horiz-adv-x="631" d="M174 479 L516 782 L530 782 L530 745 L325 479 L530 213 L530 176 L516 176 L174 479 Z " />
<glyph glyph-name="guilsinglright" unicode="&#x203a;" horiz-adv-x="631" d="M115 176 L101 176 L101 213 L306 479 L101 745 L101 782 L115 782 L457 479 L115 176 Z " />
<glyph glyph-name="&amp;#x2044;" unicode="&#x2044;" horiz-adv-x="342" d="M-342 -29 L598 1432 L682 1432 L-256 -29 L-342 -29 Z " />
<glyph glyph-name="&amp;#x2215;" unicode="&#x2215;" horiz-adv-x="342" d="M-342 -29 L598 1432 L682 1432 L-256 -29 L-342 -29 Z " />
<glyph glyph-name="franc" unicode="&#x20a3;" horiz-adv-x="1014" d="M247 357 L53 357 L53 417 L247 417 L247 1149 Q247 1384 144 1384 L48 1384 L48 1434 L963 1434 L1066 1203 L1017 1203 Q958 1385 827 1385 L511 1384 Q409 1384 409 1149 L409 797 L770 797 Q870 797 870 860 L870 918 L920 918 L920 576 L870 576 L870 636 Q870 698 770 698 L409 698 L409 417 L603 417 L603 357 L409 357 L409 285 Q409 50 511 50 L608 50 L608 0 L48 0 L48 50 L144 50 Q247 50 247 285 L247 357 Z " />
<glyph glyph-name="lira" unicode="&#x20a4;" horiz-adv-x="1014" d="M748 1347 Q676 1378 588 1378 L586 1378 Q486 1378 396 1277 Q312 1184 312 1036 Q312 1021 313 1006 Q313 900 346 793 L726 793 L726 733 L366 733 Q378 703 392 673 L744 673 L744 613 L423 613 Q458 550 458 475 Q458 314 296 100 L698 100 Q828 100 887 232 L936 231 L833 0 L114 0 L115 50 Q302 288 302 468 Q302 545 268 611 L266 613 L94 613 L94 673 L237 673 Q223 704 211 733 L76 733 L76 793 L189 793 Q153 900 153 986 Q153 1212 276.5 1333 Q400 1454 587 1454 Q662 1454 772.5 1440 Q883 1426 883 1406 L883 1245 L825 1245 Q820 1306 748 1347 Z " />
<glyph glyph-name="peseta" unicode="&#x20a7;" horiz-adv-x="2028" d="M409 1384 L409 722 Q412 713 416 705 Q457 603 524 552 Q581 508 640 508 Q650 508 659 509 Q727 517 786 584 Q845 651 873 761 Q895 848 895 940 Q895 964 894 987 Q887 1103 844.5 1205.5 Q802 1308 736 1350 Q680 1385 624 1385 Q614 1385 603 1384 L409 1384 Z M1496 908 L1317 908 L1317 223 Q1317 142 1351 104 Q1379 73 1432 67 L1361 259 L1410 260 Q1465 130 1524 86 Q1581 42 1651 42 L1658 42 Q1750 42 1809 94 Q1868 147 1868 230 Q1868 332 1609 456 Q1508 508 1465 568 Q1422 628 1422 713 Q1422 834 1495 907 L1496 908 Z M1039 910 Q1032 809 991 716 Q941 602 850 538.5 Q759 475 660 475 Q560 475 469 539 Q436 561 409 590 L409 285 Q409 50 511 50 L608 50 L608 0 L48 0 L48 50 L144 50 Q247 50 247 285 L247 1149 Q247 1384 144 1384 L48 1384 L48 1434 L666 1434 Q758 1432 847 1372 Q938 1310 990 1195 Q1040 1082 1041 958 L1051 958 Q1267 958 1267 1313 L1317 1313 L1317 958 L1576 958 Q1618 977 1686 978 L1688 978 Q1742 978 1821.5 964.5 Q1901 951 1901 931 L1901 772 L1859 772 Q1855 838 1793.5 880 Q1732 922 1660 922 Q1596 922 1557.5 885.5 Q1519 849 1519 789 Q1519 681 1754 569 Q1876 514 1921.5 451.5 Q1967 389 1967 298 Q1967 158 1884 67 Q1782 -17 1656 -19 Q1598 -19 1551 -8 Q1523 -2 1495 -2 Q1477 -2 1459 -5 Q1431 -10 1400 -10 Q1276 -10 1226.5 47 Q1177 104 1169 223 L1168 223 L1168 910 L1039 910 Z " />
<glyph glyph-name="Euro" unicode="&#x20ac;" horiz-adv-x="1014" d="M140 372 Q78 507 64 653 L-44 653 L-27 713 L60 713 L60 742 Q60 758 61 773 L-10 773 L7 833 L65 833 Q79 978 141 1114 Q222 1292 367 1388 Q512 1484 665 1484 Q708 1484 752 1476 Q792 1466 834 1447 Q842 1441 850 1441 Q870 1441 884 1486 L925 1486 L1009 1205 L969 1204 Q920 1338 831 1382 Q788 1404 750 1414 L750 1417 Q700 1433 649 1433 Q632 1433 615 1431 Q495 1419 389 1317.5 Q283 1216 232 1044 Q200 940 193 833 L899 833 L882 773 L190 773 Q190 743 192 713 L866 713 L849 653 L197 653 Q214 495 280 355 Q354 198 473 119 Q575 51 689 50 Q875 53 945 141 Q1019 232 1019 326 L1067 326 L1067 183 Q1067 113 956 56 Q851 2 689 0 Q508 0 363.5 98 Q219 196 140 372 Z " />
<glyph glyph-name="uni2116" unicode="&#x2116;" horiz-adv-x="2271" d="" />
<glyph glyph-name="trademark" unicode="&#x2122;" horiz-adv-x="1497" d="" />
<glyph glyph-name="partialdiff" unicode="&#x2202;" horiz-adv-x="1014" d="M232 537 Q232 496 237 458 Q251 336 298.5 228 Q346 120 417 63 Q481 10 545 10 Q551 10 558 11 Q628 16 685.5 81.5 Q743 147 766 261 Q782 334 782 410 Q782 452 777 495 Q763 617 714.5 726.5 Q666 836 595 892 Q530 942 467 942 L456 942 Q388 937 330 872.5 Q272 808 248 694 Q232 610 232 537 Z M937 477 Q937 345 880.5 226 Q824 107 721.5 41 Q619 -25 507 -25 Q395 -25 292.5 41 Q190 107 133.5 226 Q77 345 77 477 Q77 608 135 728 Q193 848 296 913 Q399 978 507 978 Q616 978 719 913 Q748 895 773 872 Q689 1107 539.5 1249 Q390 1391 213 1404 L213 1459 Q519 1459 728 1174 Q937 889 937 477 Z " />
<glyph glyph-name="increment" unicode="&#x2206;" horiz-adv-x="1081" d="M514 1195 L108 123 L909 123 L514 1195 Z M547 1434 L1073 0 L6 0 L547 1434 Z " />
<glyph glyph-name="product" unicode="&#x220f;" horiz-adv-x="1515" d="M511 1384 Q409 1384 409 1149 L409 -132 Q409 -367 511 -367 L608 -367 L608 -418 L48 -418 L48 -367 L144 -367 Q247 -367 247 -132 L247 1149 Q247 1384 144 1384 L48 1384 L48 1434 L1467 1434 L1467 1384 L1370 1384 Q1268 1384 1268 1149 L1268 -132 Q1268 -367 1370 -367 L1467 -367 L1467 -417 L907 -417 L907 -367 L1003 -367 Q1106 -367 1106 -132 L1106 1149 Q1106 1384 1003 1384 L511 1384 Z " />
<glyph glyph-name="summation" unicode="&#x2211;" horiz-adv-x="1206" d="M1059 548 L271 -366 L906 -366 Q1036 -366 1095 -184 L1144 -184 L1041 -416 L120 -416 L120 -366 Q182 -366 226 -313 L889 468 L226 1327 Q182 1384 120 1384 L120 1434 L1041 1434 L1144 1202 L1095 1202 Q1036 1384 906 1384 L421 1384 L1059 548 Z " />
<glyph glyph-name="minus" unicode="&#x2212;" horiz-adv-x="1014" d="M87 647 L87 787 L926 787 L927 786 L927 647 L87 647 Z " />
<glyph glyph-name="radical" unicode="&#x221a;" horiz-adv-x="1014" d="M181 0 L17 359 L91 394 L176 209 L904 1679 L1054 1679 L1054 1619 L982 1619 L181 0 Z " />
<glyph glyph-name="infinity" unicode="&#x221e;" horiz-adv-x="1014" d="M439 755 Q424 858 365 888 Q319 910 281 910 Q269 910 258 908 Q209 898 165.5 863.5 Q122 829 100 779 Q80 733 80 689 L80 681 Q82 633 107.5 592 Q133 551 179 534 Q208 523 240 523 Q256 523 273 526 Q320 536 363.5 569.5 Q407 603 439 755 Z M466 687 Q478 591 560 534 Q629 486 683 486 Q694 486 704 488 Q766 500 821.5 540 Q877 580 906 641 Q932 695 932 749 L932 760 Q930 820 896.5 868.5 Q863 917 805 937 Q768 950 729 950 Q707 950 685 946 Q618 937 558 884 Q498 831 466 687 Z M450 827 Q459 862 471 896 Q505 984 566 1033 Q627 1082 694 1082 Q761 1082 822 1034 Q883 986 917 899 Q951 812 951 717 Q951 622 917 535 Q883 448 822 400 Q761 352 694 352 Q627 352 566 401 Q505 450 471 537 Q459 572 450 607 Q445 586 438 566 Q411 493 364 453 Q317 413 265 413 Q213 413 165 454 Q117 495 91.5 567.5 Q66 640 66 717 Q66 793 91.5 866 Q117 939 165 980 Q213 1021 265 1021 Q317 1021 364 981 Q411 941 438 869 Q445 848 450 827 Z " />
<glyph glyph-name="integral" unicode="&#x222b;" horiz-adv-x="665" d="M-12 -281 Q-72 -281 -72 -252 L-72 -93 L-36 -93 Q-35 -136 -1.5 -157.5 Q32 -179 62 -179 L63 -179 Q145 -179 178 -17 Q210 145 218 299 L288 1033 L296 1095 Q323 1333 431 1524.5 Q539 1716 665 1716 Q725 1716 725 1687 L725 1528 L689 1528 Q688 1571 654 1592.5 Q620 1614 591 1614 Q520 1614 475 1458.5 Q430 1303 426 1095 L353 328 Q333 97 222.5 -92 Q112 -281 -12 -281 Z " />
<glyph glyph-name="approxequal" unicode="&#x2248;" horiz-adv-x="1014" d="M923 1053 L923 897 Q860 825 801 799.5 Q742 774 685 774 Q625 774 507.5 822.5 Q390 871 331 871 Q280 871 223.5 843 Q167 815 94 731 L94 887 Q158 960 217 986 Q276 1012 331 1012 Q395 1012 512.5 962.5 Q630 913 685 913 Q737 913 793.5 941 Q850 969 923 1053 Z M923 705 L923 549 Q860 477 801 451.5 Q742 426 685 426 Q625 426 507.5 474.5 Q390 523 331 523 Q280 523 223.5 495 Q167 467 94 383 L94 539 Q158 612 217 638 Q276 664 331 664 Q395 664 512.5 614.5 Q630 565 685 565 Q737 565 793.5 593 Q850 621 923 705 Z " />
<glyph glyph-name="lessequal" unicode="&#x2264;" horiz-adv-x="1014" d="M927 1074 L302 715 L927 360 L927 193 L87 674 L87 757 L927 1241 L927 1074 Z M87 1 L87 141 L926 141 L927 140 L927 1 L87 1 Z " />
<glyph glyph-name="greaterequal" unicode="&#x2265;" horiz-adv-x="1014" d="M87 1241 L927 757 L927 674 L87 193 L87 360 L712 715 L87 1074 L87 1241 Z M87 2 L87 142 L926 142 L927 141 L927 2 L87 2 Z " />
<glyph glyph-name="&amp;#xf001;" unicode="&#xf001;" horiz-adv-x="1073" d="" />
<glyph glyph-name="&amp;#xfb01;" unicode="&#xfb01;" horiz-adv-x="1073" d="" />
<glyph glyph-name="&amp;#xf002;" unicode="&#xf002;" horiz-adv-x="1081" d="" />
<glyph glyph-name="&amp;#xfb02;" unicode="&#xfb02;" horiz-adv-x="1081" d="" />
</font>
</svg>
